%TF.GenerationSoftware,Altium Limited,Altium Designer,24.10.1 (45)*%
G04 Layer_Color=8388736*
%FSLAX43Y43*%
%MOMM*%
%TF.SameCoordinates,1E8B00CD-57C1-46D1-8C79-DF170AAAF224*%
%TF.FilePolarity,Negative*%
%TF.FileFunction,Soldermask,Top*%
%TF.Part,Single*%
G01*
G75*
%TA.AperFunction,ConnectorPad*%
%ADD12R,1.150X0.300*%
%ADD13R,1.150X0.600*%
%TA.AperFunction,SMDPad,CuDef*%
G04:AMPARAMS|DCode=19|XSize=2.598mm|YSize=0.622mm|CornerRadius=0.311mm|HoleSize=0mm|Usage=FLASHONLY|Rotation=0.000|XOffset=0mm|YOffset=0mm|HoleType=Round|Shape=RoundedRectangle|*
%AMROUNDEDRECTD19*
21,1,2.598,0.000,0,0,0.0*
21,1,1.976,0.622,0,0,0.0*
1,1,0.622,0.988,0.000*
1,1,0.622,-0.988,0.000*
1,1,0.622,-0.988,0.000*
1,1,0.622,0.988,0.000*
%
%ADD19ROUNDEDRECTD19*%
%ADD20R,2.598X0.622*%
%TA.AperFunction,ConnectorPad*%
%ADD28R,0.350X0.660*%
%ADD29R,0.350X0.430*%
%ADD30R,1.250X1.100*%
%TA.AperFunction,ComponentPad*%
%ADD44C,0.650*%
%TA.AperFunction,ViaPad*%
%ADD53C,0.600*%
%TA.AperFunction,ComponentPad*%
%ADD64O,2.176X1.076*%
%ADD65O,1.876X1.076*%
G04:AMPARAMS|DCode=66|XSize=1.776mm|YSize=1.776mm|CornerRadius=0.888mm|HoleSize=0mm|Usage=FLASHONLY|Rotation=90.000|XOffset=0mm|YOffset=0mm|HoleType=Round|Shape=RoundedRectangle|*
%AMROUNDEDRECTD66*
21,1,1.776,0.000,0,0,90.0*
21,1,0.000,1.776,0,0,90.0*
1,1,1.776,0.000,0.000*
1,1,1.776,0.000,0.000*
1,1,1.776,0.000,0.000*
1,1,1.776,0.000,0.000*
%
%ADD66ROUNDEDRECTD66*%
%ADD67R,1.776X1.776*%
G04:AMPARAMS|DCode=68|XSize=1.776mm|YSize=1.776mm|CornerRadius=0.888mm|HoleSize=0mm|Usage=FLASHONLY|Rotation=180.000|XOffset=0mm|YOffset=0mm|HoleType=Round|Shape=RoundedRectangle|*
%AMROUNDEDRECTD68*
21,1,1.776,0.000,0,0,180.0*
21,1,0.000,1.776,0,0,180.0*
1,1,1.776,0.000,0.000*
1,1,1.776,0.000,0.000*
1,1,1.776,0.000,0.000*
1,1,1.776,0.000,0.000*
%
%ADD68ROUNDEDRECTD68*%
%ADD69R,1.776X1.776*%
%ADD70C,0.876*%
%TA.AperFunction,ConnectorPad*%
%ADD71R,1.226X0.376*%
%TA.AperFunction,SMDPad,CuDef*%
G04:AMPARAMS|DCode=72|XSize=0.726mm|YSize=1.676mm|CornerRadius=0.152mm|HoleSize=0mm|Usage=FLASHONLY|Rotation=180.000|XOffset=0mm|YOffset=0mm|HoleType=Round|Shape=RoundedRectangle|*
%AMROUNDEDRECTD72*
21,1,0.726,1.373,0,0,180.0*
21,1,0.422,1.676,0,0,180.0*
1,1,0.304,-0.211,0.686*
1,1,0.304,0.211,0.686*
1,1,0.304,0.211,-0.686*
1,1,0.304,-0.211,-0.686*
%
%ADD72ROUNDEDRECTD72*%
%ADD73R,0.726X1.676*%
G04:AMPARAMS|DCode=74|XSize=1.232mm|YSize=0.612mm|CornerRadius=0.306mm|HoleSize=0mm|Usage=FLASHONLY|Rotation=90.000|XOffset=0mm|YOffset=0mm|HoleType=Round|Shape=RoundedRectangle|*
%AMROUNDEDRECTD74*
21,1,1.232,0.000,0,0,90.0*
21,1,0.620,0.612,0,0,90.0*
1,1,0.612,0.000,0.310*
1,1,0.612,0.000,-0.310*
1,1,0.612,0.000,-0.310*
1,1,0.612,0.000,0.310*
%
%ADD74ROUNDEDRECTD74*%
%ADD75R,0.612X1.232*%
%ADD76R,0.676X0.876*%
%TA.AperFunction,ConnectorPad*%
%ADD77R,0.906X0.701*%
%TA.AperFunction,SMDPad,CuDef*%
%ADD78R,0.576X0.876*%
G04:AMPARAMS|DCode=79|XSize=0.276mm|YSize=1.026mm|CornerRadius=0.088mm|HoleSize=0mm|Usage=FLASHONLY|Rotation=90.000|XOffset=0mm|YOffset=0mm|HoleType=Round|Shape=RoundedRectangle|*
%AMROUNDEDRECTD79*
21,1,0.276,0.850,0,0,90.0*
21,1,0.100,1.026,0,0,90.0*
1,1,0.176,0.425,0.050*
1,1,0.176,0.425,-0.050*
1,1,0.176,-0.425,-0.050*
1,1,0.176,-0.425,0.050*
%
%ADD79ROUNDEDRECTD79*%
G04:AMPARAMS|DCode=80|XSize=0.276mm|YSize=1.026mm|CornerRadius=0.088mm|HoleSize=0mm|Usage=FLASHONLY|Rotation=0.000|XOffset=0mm|YOffset=0mm|HoleType=Round|Shape=RoundedRectangle|*
%AMROUNDEDRECTD80*
21,1,0.276,0.850,0,0,0.0*
21,1,0.100,1.026,0,0,0.0*
1,1,0.176,0.050,-0.425*
1,1,0.176,-0.050,-0.425*
1,1,0.176,-0.050,0.425*
1,1,0.176,0.050,0.425*
%
%ADD80ROUNDEDRECTD80*%
%ADD81R,1.026X0.276*%
%ADD82R,3.276X3.276*%
G04:AMPARAMS|DCode=83|XSize=0.876mm|YSize=1.076mm|CornerRadius=0.138mm|HoleSize=0mm|Usage=FLASHONLY|Rotation=270.000|XOffset=0mm|YOffset=0mm|HoleType=Round|Shape=RoundedRectangle|*
%AMROUNDEDRECTD83*
21,1,0.876,0.800,0,0,270.0*
21,1,0.600,1.076,0,0,270.0*
1,1,0.276,-0.400,-0.300*
1,1,0.276,-0.400,0.300*
1,1,0.276,0.400,0.300*
1,1,0.276,0.400,-0.300*
%
%ADD83ROUNDEDRECTD83*%
%ADD84R,0.976X0.876*%
%ADD85R,0.876X0.976*%
%TA.AperFunction,ConnectorPad*%
%ADD86R,0.876X0.576*%
%TA.AperFunction,SMDPad,CuDef*%
%ADD87R,0.876X0.576*%
D12*
X7677Y9750D02*
D03*
Y10250D02*
D03*
Y8750D02*
D03*
Y9250D02*
D03*
Y10750D02*
D03*
Y7250D02*
D03*
Y8250D02*
D03*
D13*
Y12200D02*
D03*
Y11400D02*
D03*
Y5800D02*
D03*
Y6600D02*
D03*
D19*
X36578Y9675D02*
D03*
Y8405D02*
D03*
Y10945D02*
D03*
Y5865D02*
D03*
Y7135D02*
D03*
Y4595D02*
D03*
Y2055D02*
D03*
Y3325D02*
D03*
X27422Y4595D02*
D03*
Y5865D02*
D03*
Y9675D02*
D03*
Y7135D02*
D03*
Y8405D02*
D03*
Y2055D02*
D03*
Y3325D02*
D03*
D20*
Y10945D02*
D03*
D28*
X3318Y2230D02*
D03*
D29*
X3193Y3165D02*
D03*
X2543D02*
D03*
X3193Y1295D02*
D03*
X2543D02*
D03*
X1893Y3165D02*
D03*
Y1295D02*
D03*
D30*
X2258Y2230D02*
D03*
D44*
X6602Y11890D02*
D03*
Y6110D02*
D03*
D53*
X21770Y10513D02*
D03*
X20500Y9243D02*
D03*
Y10513D02*
D03*
X21770Y9243D02*
D03*
X20500Y7973D02*
D03*
X21770D02*
D03*
X19230Y9243D02*
D03*
Y10513D02*
D03*
Y7973D02*
D03*
D64*
X7102Y13320D02*
D03*
Y4680D02*
D03*
D65*
X2922Y13320D02*
D03*
Y4680D02*
D03*
D66*
X22540Y18140D02*
D03*
X25080D02*
D03*
X20000D02*
D03*
X27620D02*
D03*
X14920D02*
D03*
X17460D02*
D03*
X12380D02*
D03*
Y15600D02*
D03*
X9840D02*
D03*
X27620D02*
D03*
X25080D02*
D03*
X17460D02*
D03*
X14920D02*
D03*
X22540D02*
D03*
X20000D02*
D03*
X9840Y18140D02*
D03*
X7300D02*
D03*
D67*
Y15600D02*
D03*
D68*
X46000Y7580D02*
D03*
Y10120D02*
D03*
Y5040D02*
D03*
Y15200D02*
D03*
X43460D02*
D03*
X46000Y12660D02*
D03*
X43460Y2500D02*
D03*
Y10120D02*
D03*
Y12660D02*
D03*
Y5040D02*
D03*
Y7580D02*
D03*
D69*
X46000Y2500D02*
D03*
D70*
X33167Y18267D02*
D03*
X33650Y17100D02*
D03*
X32000Y18750D02*
D03*
X33167Y15933D02*
D03*
X32000Y15450D02*
D03*
X30833Y15933D02*
D03*
Y18267D02*
D03*
X30350Y17100D02*
D03*
X4067Y18267D02*
D03*
X4550Y17100D02*
D03*
X2900Y18750D02*
D03*
X4067Y15933D02*
D03*
X2900Y15450D02*
D03*
X1733Y15933D02*
D03*
Y18267D02*
D03*
X1250Y17100D02*
D03*
D71*
X7677Y7750D02*
D03*
D72*
X16306Y4333D02*
D03*
X14406D02*
D03*
X16306Y1833D02*
D03*
X15356D02*
D03*
D73*
X14406D02*
D03*
D74*
X13073Y10175D02*
D03*
X12123D02*
D03*
X11173D02*
D03*
X12123Y8025D02*
D03*
X13073D02*
D03*
D75*
X11173D02*
D03*
D76*
X36662Y16656D02*
D03*
X37612Y14636D02*
D03*
X35712D02*
D03*
X40039Y16648D02*
D03*
X40989Y14628D02*
D03*
X39089D02*
D03*
D77*
X4938Y2984D02*
D03*
Y759D02*
D03*
D78*
X19400Y2457D02*
D03*
X17900D02*
D03*
X39786Y13244D02*
D03*
X38286D02*
D03*
X10658Y13244D02*
D03*
X9158D02*
D03*
X44861Y17557D02*
D03*
X43361D02*
D03*
X44866Y18859D02*
D03*
X43366D02*
D03*
X37215Y13286D02*
D03*
X35715D02*
D03*
X13164Y6242D02*
D03*
X11664D02*
D03*
D79*
X22975Y10743D02*
D03*
Y9743D02*
D03*
Y9243D02*
D03*
Y10243D02*
D03*
Y8743D02*
D03*
Y8243D02*
D03*
Y7743D02*
D03*
X18025Y9243D02*
D03*
Y8743D02*
D03*
Y10243D02*
D03*
Y9743D02*
D03*
Y7743D02*
D03*
Y8243D02*
D03*
D80*
X22000Y11718D02*
D03*
X21000D02*
D03*
X21500D02*
D03*
X20000D02*
D03*
X20500D02*
D03*
X22000Y6768D02*
D03*
X21500D02*
D03*
X20500D02*
D03*
X21000D02*
D03*
X19000Y11718D02*
D03*
X19500D02*
D03*
Y6768D02*
D03*
X20000D02*
D03*
X19000D02*
D03*
D81*
X18025Y10743D02*
D03*
D82*
X20500Y9243D02*
D03*
D83*
X24721Y4625D02*
D03*
Y3125D02*
D03*
D84*
X46329Y18819D02*
D03*
Y17519D02*
D03*
X9393Y2294D02*
D03*
Y994D02*
D03*
X15271Y7954D02*
D03*
Y6654D02*
D03*
X24489Y12249D02*
D03*
Y10949D02*
D03*
X16446Y7954D02*
D03*
Y6654D02*
D03*
X24721Y7433D02*
D03*
Y6133D02*
D03*
X10827Y2294D02*
D03*
Y994D02*
D03*
X40117Y10860D02*
D03*
Y9560D02*
D03*
X38913Y10860D02*
D03*
Y9560D02*
D03*
D85*
X37405Y18243D02*
D03*
X36105D02*
D03*
X19286Y5120D02*
D03*
X17986D02*
D03*
X41333Y18264D02*
D03*
X40033D02*
D03*
X28717Y13005D02*
D03*
X27417D02*
D03*
X12194Y11878D02*
D03*
X10894D02*
D03*
X19286Y3806D02*
D03*
X17986D02*
D03*
D86*
X7960Y2388D02*
D03*
Y888D02*
D03*
D87*
X9424Y4871D02*
D03*
Y3371D02*
D03*
X6570Y2388D02*
D03*
Y888D02*
D03*
X12261Y4871D02*
D03*
Y3371D02*
D03*
X23220Y4413D02*
D03*
Y2913D02*
D03*
X20655Y4424D02*
D03*
Y2924D02*
D03*
X21987Y4416D02*
D03*
Y2916D02*
D03*
X10827Y4871D02*
D03*
Y3371D02*
D03*
%TF.MD5,bc65b30d2e9ca5ef719c7b662c0aae81*%
M02*
