%TF.GenerationSoftware,Altium Limited,Altium Designer,24.10.1 (45)*%
G04 Layer_Physical_Order=2*
G04 Layer_Color=16711680*
%FSLAX43Y43*%
%MOMM*%
%TF.SameCoordinates,D559FD22-AC31-4CFD-8532-8E5833C3503B*%
%TF.FilePolarity,Positive*%
%TF.FileFunction,Copper,L2,Bot,Signal*%
%TF.Part,Single*%
G01*
G75*
%TA.AperFunction,Conductor*%
%ADD10C,0.144*%
%ADD11C,0.146*%
%ADD36C,0.500*%
%ADD37C,0.300*%
%ADD38C,0.295*%
%ADD42C,0.600*%
%ADD43C,1.000*%
%TA.AperFunction,ComponentPad*%
%ADD44C,0.650*%
%ADD45O,2.100X1.000*%
%ADD46O,1.800X1.000*%
G04:AMPARAMS|DCode=47|XSize=1.7mm|YSize=1.7mm|CornerRadius=0.85mm|HoleSize=0mm|Usage=FLASHONLY|Rotation=90.000|XOffset=0mm|YOffset=0mm|HoleType=Round|Shape=RoundedRectangle|*
%AMROUNDEDRECTD47*
21,1,1.700,0.000,0,0,90.0*
21,1,0.000,1.700,0,0,90.0*
1,1,1.700,0.000,0.000*
1,1,1.700,0.000,0.000*
1,1,1.700,0.000,0.000*
1,1,1.700,0.000,0.000*
%
%ADD47ROUNDEDRECTD47*%
%ADD48R,1.700X1.700*%
G04:AMPARAMS|DCode=49|XSize=1.7mm|YSize=1.7mm|CornerRadius=0.85mm|HoleSize=0mm|Usage=FLASHONLY|Rotation=180.000|XOffset=0mm|YOffset=0mm|HoleType=Round|Shape=RoundedRectangle|*
%AMROUNDEDRECTD49*
21,1,1.700,0.000,0,0,180.0*
21,1,0.000,1.700,0,0,180.0*
1,1,1.700,0.000,0.000*
1,1,1.700,0.000,0.000*
1,1,1.700,0.000,0.000*
1,1,1.700,0.000,0.000*
%
%ADD49ROUNDEDRECTD49*%
%ADD50R,1.700X1.700*%
%ADD51C,0.800*%
%ADD52C,4.400*%
%TA.AperFunction,ViaPad*%
%ADD53C,0.600*%
%ADD54C,1.000*%
G36*
X10672Y18211D02*
X10671Y18176D01*
X10677Y18139D01*
X10689Y18101D01*
X10707Y18060D01*
X10732Y18017D01*
X10762Y17973D01*
X10798Y17926D01*
X10841Y17877D01*
X10889Y17827D01*
X10785Y17513D01*
X10738Y17559D01*
X10694Y17597D01*
X10654Y17626D01*
X10619Y17647D01*
X10587Y17660D01*
X10559Y17664D01*
X10536Y17661D01*
X10516Y17649D01*
X10501Y17629D01*
X10489Y17601D01*
X10678Y18243D01*
X10672Y18211D01*
D02*
G37*
G36*
X13131Y17765D02*
X13121Y17741D01*
X13117Y17713D01*
X13120Y17683D01*
X13131Y17650D01*
X13148Y17614D01*
X13172Y17576D01*
X13202Y17535D01*
X13240Y17491D01*
X13284Y17444D01*
X13076Y17236D01*
X13029Y17280D01*
X12985Y17318D01*
X12944Y17348D01*
X12906Y17372D01*
X12870Y17389D01*
X12837Y17400D01*
X12807Y17403D01*
X12779Y17399D01*
X12755Y17389D01*
X12733Y17372D01*
X13148Y17787D01*
X13131Y17765D01*
D02*
G37*
G36*
X27294Y15274D02*
X28406D01*
X28352Y15164D01*
X28303Y15049D01*
X28260Y14927D01*
X28223Y14800D01*
X28166Y14528D01*
X28146Y14383D01*
X28123Y14077D01*
X28120Y13915D01*
X27120D01*
X27117Y14077D01*
X27094Y14383D01*
X27074Y14528D01*
X27017Y14800D01*
X26980Y14927D01*
X26971Y14951D01*
X26947Y14960D01*
X26820Y14997D01*
X26548Y15054D01*
X26403Y15074D01*
X26350Y15078D01*
X26297Y15074D01*
X26152Y15054D01*
X25880Y14997D01*
X25753Y14960D01*
X25631Y14917D01*
X25516Y14868D01*
X25406Y14814D01*
Y16386D01*
X25516Y16332D01*
X25631Y16283D01*
X25753Y16240D01*
X25880Y16203D01*
X26152Y16146D01*
X26297Y16126D01*
X26350Y16122D01*
X26403Y16126D01*
X26548Y16146D01*
X26820Y16203D01*
X26947Y16240D01*
X27069Y16283D01*
X27184Y16332D01*
X27294Y16386D01*
Y15274D01*
D02*
G37*
G36*
X22214Y14814D02*
X22104Y14868D01*
X21989Y14917D01*
X21867Y14960D01*
X21740Y14997D01*
X21468Y15054D01*
X21323Y15074D01*
X21270Y15078D01*
X21217Y15074D01*
X21072Y15054D01*
X20800Y14997D01*
X20673Y14960D01*
X20551Y14917D01*
X20436Y14868D01*
X20326Y14814D01*
Y16386D01*
X20436Y16332D01*
X20551Y16283D01*
X20673Y16240D01*
X20800Y16203D01*
X21072Y16146D01*
X21217Y16126D01*
X21270Y16122D01*
X21323Y16126D01*
X21468Y16146D01*
X21740Y16203D01*
X21867Y16240D01*
X21989Y16283D01*
X22104Y16332D01*
X22214Y16386D01*
Y14814D01*
D02*
G37*
G36*
X13064Y15103D02*
X13058Y15091D01*
X13056Y15077D01*
X13057Y15063D01*
X13061Y15047D01*
X13069Y15031D01*
X13080Y15013D01*
X13094Y14994D01*
X13111Y14973D01*
X13131Y14952D01*
X13028Y14849D01*
X13007Y14869D01*
X12986Y14886D01*
X12967Y14900D01*
X12949Y14911D01*
X12933Y14919D01*
X12917Y14923D01*
X12903Y14924D01*
X12889Y14922D01*
X12877Y14916D01*
X12867Y14908D01*
X13072Y15113D01*
X13064Y15103D01*
D02*
G37*
G36*
X10388Y14959D02*
X10381Y14949D01*
X10377Y14937D01*
X10376Y14924D01*
X10380Y14910D01*
X10386Y14894D01*
X10396Y14876D01*
X10410Y14858D01*
X10427Y14837D01*
X10448Y14815D01*
X10319Y14738D01*
X10298Y14759D01*
X10277Y14776D01*
X10257Y14791D01*
X10238Y14803D01*
X10220Y14812D01*
X10203Y14818D01*
X10187Y14820D01*
X10172Y14820D01*
X10158Y14817D01*
X10145Y14811D01*
X10399Y14967D01*
X10388Y14959D01*
D02*
G37*
G36*
X8139Y14948D02*
X8135Y14934D01*
Y14919D01*
X8139Y14902D01*
X8147Y14882D01*
X8159Y14860D01*
X8176Y14837D01*
X8196Y14811D01*
X8250Y14753D01*
X8147Y14650D01*
X8117Y14679D01*
X8063Y14724D01*
X8040Y14741D01*
X8018Y14753D01*
X7998Y14761D01*
X7981Y14765D01*
X7965D01*
X7952Y14761D01*
X7941Y14753D01*
X8147Y14959D01*
X8139Y14948D01*
D02*
G37*
G36*
X21477Y14756D02*
X21519Y14729D01*
X21564Y14705D01*
X21611Y14685D01*
X21662Y14667D01*
X21715Y14653D01*
X21771Y14642D01*
X21830Y14634D01*
X21892Y14630D01*
X21956Y14628D01*
Y14482D01*
X21892Y14481D01*
X21771Y14468D01*
X21715Y14457D01*
X21662Y14443D01*
X21611Y14426D01*
X21564Y14405D01*
X21519Y14381D01*
X21477Y14355D01*
X21438Y14325D01*
Y14786D01*
X21477Y14756D01*
D02*
G37*
G36*
X23343Y15894D02*
X23378Y15845D01*
X23432Y15779D01*
X23708Y15477D01*
X24340Y14832D01*
X23624Y14134D01*
X23510Y14242D01*
X23393Y14340D01*
X23274Y14427D01*
X23153Y14506D01*
X23029Y14574D01*
X22903Y14632D01*
X22774Y14680D01*
X22643Y14718D01*
X22510Y14747D01*
X22374Y14765D01*
X23326Y15926D01*
X23343Y15894D01*
D02*
G37*
G36*
X19746Y14145D02*
X19773Y14133D01*
X19806Y14122D01*
X19845Y14113D01*
X19891Y14105D01*
X20000Y14094D01*
X20133Y14088D01*
X20210Y14088D01*
X20229Y13793D01*
X20155Y13792D01*
X19966Y13777D01*
X19914Y13769D01*
X19867Y13758D01*
X19826Y13746D01*
X19790Y13732D01*
X19760Y13715D01*
X19736Y13697D01*
X19725Y14158D01*
X19746Y14145D01*
D02*
G37*
G36*
X19350Y13690D02*
X19329Y13704D01*
X19302Y13716D01*
X19268Y13727D01*
X19229Y13737D01*
X19183Y13745D01*
X19074Y13757D01*
X18941Y13763D01*
X18865Y13763D01*
X18851Y14058D01*
X18925Y14059D01*
X19114Y14073D01*
X19166Y14081D01*
X19213Y14091D01*
X19253Y14103D01*
X19289Y14117D01*
X19318Y14133D01*
X19342Y14150D01*
X19350Y13690D01*
D02*
G37*
G36*
X20693Y13552D02*
X20721Y13538D01*
X20755Y13526D01*
X20795Y13515D01*
X20841Y13506D01*
X20951Y13493D01*
X21014Y13489D01*
X21159Y13486D01*
X21161Y13191D01*
X21086Y13190D01*
X20896Y13177D01*
X20844Y13170D01*
X20798Y13161D01*
X20758Y13150D01*
X20723Y13137D01*
X20695Y13123D01*
X20672Y13106D01*
X20670Y13567D01*
X20693Y13552D01*
D02*
G37*
G36*
X20287Y13106D02*
X20264Y13122D01*
X20235Y13136D01*
X20201Y13148D01*
X20161Y13159D01*
X20115Y13168D01*
X20063Y13176D01*
X19942Y13185D01*
X19798Y13189D01*
Y13484D01*
X19873Y13485D01*
X20063Y13497D01*
X20115Y13505D01*
X20161Y13514D01*
X20201Y13524D01*
X20235Y13537D01*
X20264Y13551D01*
X20287Y13567D01*
Y13106D01*
D02*
G37*
G36*
X29327Y12760D02*
X29200Y12707D01*
X28326Y13581D01*
Y14033D01*
X28327Y14067D01*
X28349Y14362D01*
X28367Y14493D01*
X28421Y14750D01*
X28454Y14864D01*
X28493Y14975D01*
X28537Y15080D01*
X28570Y15146D01*
X28598Y15195D01*
X28670Y15462D01*
Y15738D01*
X28598Y16005D01*
X28460Y16245D01*
X28265Y16440D01*
X28025Y16578D01*
X27758Y16650D01*
X27482D01*
X27215Y16578D01*
X27166Y16550D01*
X27100Y16517D01*
X26995Y16474D01*
X26884Y16434D01*
X26770Y16401D01*
X26513Y16347D01*
X26382Y16329D01*
X26350Y16326D01*
X26318Y16329D01*
X26187Y16347D01*
X25930Y16401D01*
X25816Y16434D01*
X25705Y16473D01*
X25600Y16517D01*
X25534Y16550D01*
X25485Y16578D01*
X25218Y16650D01*
X24942D01*
X24675Y16578D01*
X24435Y16440D01*
X24240Y16245D01*
X24102Y16005D01*
X24030Y15738D01*
Y15621D01*
X23903Y15569D01*
X23856Y15617D01*
X23587Y15912D01*
X23540Y15969D01*
X23521Y15995D01*
X23518Y16005D01*
X23380Y16245D01*
X23185Y16440D01*
X22945Y16578D01*
X22678Y16650D01*
X22402D01*
X22135Y16578D01*
X22086Y16550D01*
X22020Y16517D01*
X21915Y16474D01*
X21804Y16434D01*
X21690Y16401D01*
X21433Y16347D01*
X21302Y16329D01*
X21270Y16326D01*
X21238Y16329D01*
X21107Y16347D01*
X20850Y16401D01*
X20736Y16434D01*
X20625Y16473D01*
X20520Y16517D01*
X20454Y16550D01*
X20405Y16578D01*
X20138Y16650D01*
X19862D01*
X19595Y16578D01*
X19355Y16440D01*
X19160Y16245D01*
X19022Y16005D01*
X18950Y15738D01*
Y15462D01*
X19022Y15195D01*
X19160Y14955D01*
X19355Y14760D01*
X19595Y14622D01*
X19862Y14550D01*
X20138D01*
X20405Y14622D01*
X20454Y14650D01*
X20520Y14683D01*
X20625Y14726D01*
X20640Y14732D01*
X20689Y14696D01*
X20745Y14634D01*
Y14456D01*
X20769Y14400D01*
X20698Y14294D01*
X20086D01*
X20015Y14297D01*
X19918Y14307D01*
X19886Y14313D01*
X19860Y14319D01*
X19846Y14324D01*
X19845Y14324D01*
X19822Y14347D01*
X19638Y14423D01*
X19439D01*
X19255Y14347D01*
X19224Y14316D01*
X19223Y14315D01*
X19210Y14306D01*
X19204Y14303D01*
X19187Y14297D01*
X19162Y14289D01*
X19128Y14282D01*
X19091Y14276D01*
X18944Y14265D01*
X17205D01*
X17030Y14441D01*
X17095Y14555D01*
X17210Y14524D01*
Y15600D01*
Y16676D01*
X17034Y16629D01*
X16782Y16483D01*
X16702Y16403D01*
X16538Y16419D01*
X16527Y16436D01*
X15930Y17032D01*
X15816Y17109D01*
X15680Y17136D01*
X15535D01*
X15501Y17263D01*
X15565Y17300D01*
X15760Y17495D01*
X15898Y17735D01*
X15970Y18002D01*
Y18278D01*
X15898Y18545D01*
X15760Y18785D01*
X15565Y18980D01*
X15325Y19118D01*
X15058Y19190D01*
X14782D01*
X14515Y19118D01*
X14275Y18980D01*
X14080Y18785D01*
X13942Y18545D01*
X13870Y18278D01*
Y18002D01*
X13942Y17735D01*
X14080Y17495D01*
X14275Y17300D01*
X14339Y17263D01*
X14305Y17136D01*
X13885D01*
X13377Y17644D01*
X13361Y17662D01*
X13340Y17691D01*
X13336Y17697D01*
X13358Y17735D01*
X13430Y18002D01*
Y18278D01*
X13358Y18545D01*
X13220Y18785D01*
X13025Y18980D01*
X12785Y19118D01*
X12518Y19190D01*
X12242D01*
X11975Y19118D01*
X11735Y18980D01*
X11540Y18785D01*
X11402Y18545D01*
X11330Y18278D01*
Y18002D01*
X11383Y17806D01*
X11269Y17740D01*
X10976Y18033D01*
X10956Y18056D01*
X10927Y18093D01*
X10905Y18125D01*
X10890Y18151D01*
Y18278D01*
X10818Y18545D01*
X10680Y18785D01*
X10485Y18980D01*
X10245Y19118D01*
X9978Y19190D01*
X9702D01*
X9435Y19118D01*
X9195Y18980D01*
X9000Y18785D01*
X8862Y18545D01*
X8790Y18278D01*
Y18002D01*
X8862Y17735D01*
X9000Y17495D01*
X9195Y17300D01*
X9435Y17162D01*
X9702Y17090D01*
X9978D01*
X10245Y17162D01*
X10485Y17300D01*
X10596Y17411D01*
X11424Y16582D01*
X11539Y16505D01*
X11607Y16492D01*
X11649Y16354D01*
X11540Y16245D01*
X11402Y16005D01*
X11330Y15738D01*
Y15462D01*
X11402Y15195D01*
X11540Y14955D01*
X11733Y14762D01*
X11732Y14733D01*
X11706Y14635D01*
X10919D01*
X10639Y14914D01*
X10680Y14955D01*
X10818Y15195D01*
X10890Y15462D01*
Y15738D01*
X10818Y16005D01*
X10680Y16245D01*
X10485Y16440D01*
X10245Y16578D01*
X9978Y16650D01*
X9702D01*
X9435Y16578D01*
X9195Y16440D01*
X9000Y16245D01*
X8862Y16005D01*
X8790Y15738D01*
Y15462D01*
X8862Y15195D01*
X9000Y14955D01*
X9178Y14777D01*
X9154Y14650D01*
X8644D01*
X8371Y14923D01*
X8351Y14944D01*
X8350Y14945D01*
Y14955D01*
X8351Y14959D01*
X8350Y14964D01*
Y16650D01*
X6250D01*
Y14550D01*
X7936D01*
X7941Y14549D01*
X7945Y14550D01*
X7954D01*
X7972Y14534D01*
X8332Y14175D01*
X8422Y14115D01*
X8528Y14093D01*
X10005D01*
X10259Y13840D01*
X10349Y13780D01*
X10455Y13758D01*
X13051D01*
X15267Y11543D01*
X15357Y11483D01*
X15464Y11461D01*
X16564D01*
X16612Y11344D01*
X16501Y11233D01*
X16463Y11200D01*
X16425Y11171D01*
X16388Y11146D01*
X16353Y11126D01*
X16318Y11109D01*
X16285Y11096D01*
X16252Y11085D01*
X16220Y11078D01*
X16180Y11073D01*
X16177Y11072D01*
X16134D01*
X15950Y10996D01*
X15810Y10855D01*
X15734Y10671D01*
Y10473D01*
X15810Y10289D01*
X15950Y10148D01*
X16134Y10072D01*
X16333D01*
X16517Y10148D01*
X16658Y10289D01*
X16734Y10473D01*
Y10515D01*
X16735Y10518D01*
X16740Y10558D01*
X16747Y10590D01*
X16757Y10623D01*
X16771Y10656D01*
X16788Y10691D01*
X16808Y10727D01*
X16831Y10761D01*
X16896Y10841D01*
X17267Y11212D01*
X18495D01*
X18602Y11233D01*
X18692Y11294D01*
X18820Y11422D01*
X22060D01*
Y11302D01*
X22136Y11118D01*
X22277Y10977D01*
X22460Y10901D01*
X22659D01*
X22718Y10926D01*
X22845Y10841D01*
Y6588D01*
X22818Y6561D01*
X21633D01*
X21627Y6562D01*
X21176D01*
X21070Y6541D01*
X20980Y6481D01*
X20562Y6063D01*
X20524Y6030D01*
X20486Y6002D01*
X20449Y5977D01*
X20414Y5956D01*
X20379Y5939D01*
X20345Y5926D01*
X20313Y5916D01*
X20281Y5909D01*
X20240Y5903D01*
X20238Y5902D01*
X20195D01*
X20011Y5826D01*
X19871Y5686D01*
X19795Y5502D01*
Y5303D01*
X19871Y5119D01*
X20011Y4979D01*
X20195Y4902D01*
X20394D01*
X20578Y4979D01*
X20719Y5119D01*
X20795Y5303D01*
Y5346D01*
X20796Y5348D01*
X20801Y5389D01*
X20808Y5421D01*
X20818Y5453D01*
X20832Y5487D01*
X20848Y5521D01*
X20850Y5523D01*
X20946Y5529D01*
X20992Y5512D01*
X20996Y5501D01*
X21137Y5360D01*
X21321Y5284D01*
X21462D01*
X21475Y5265D01*
Y5066D01*
X21551Y4882D01*
X21691Y4742D01*
X21875Y4666D01*
X22074D01*
X22258Y4742D01*
X22288Y4772D01*
X22290Y4773D01*
X22323Y4798D01*
X22350Y4815D01*
X22381Y4831D01*
X22414Y4846D01*
X22450Y4858D01*
X22490Y4869D01*
X22531Y4877D01*
X22633Y4887D01*
X22742D01*
X22849Y4909D01*
X22939Y4969D01*
X23286Y5316D01*
X23287Y5317D01*
X23471Y5501D01*
X23589Y5452D01*
Y4854D01*
X23610Y4748D01*
X23670Y4658D01*
X24526Y3802D01*
X24616Y3742D01*
X24722Y3721D01*
X25820D01*
X25926Y3742D01*
X26016Y3802D01*
X26613Y4399D01*
X26673Y4489D01*
X26694Y4596D01*
Y7602D01*
X26673Y7708D01*
X26613Y7799D01*
X26274Y8138D01*
X26241Y8176D01*
X26212Y8214D01*
X26188Y8250D01*
X26167Y8286D01*
X26150Y8321D01*
X26137Y8354D01*
X26126Y8387D01*
X26119Y8419D01*
X26114Y8459D01*
X26113Y8462D01*
Y8504D01*
X26037Y8688D01*
X25896Y8829D01*
X25713Y8905D01*
X25514D01*
X25330Y8829D01*
X25314Y8813D01*
X25187Y8865D01*
Y12288D01*
X25166Y12394D01*
X25105Y12484D01*
X24349Y13241D01*
X24386Y13339D01*
X24407Y13363D01*
X24929D01*
X26888Y11403D01*
Y2994D01*
X26710Y2816D01*
X15146D01*
X14971Y2991D01*
Y4502D01*
X14994Y4506D01*
X15061Y4551D01*
X15105Y4617D01*
X15120Y4695D01*
Y6243D01*
X15105Y6321D01*
X15061Y6387D01*
X14994Y6431D01*
X14916Y6447D01*
X12975D01*
X12897Y6431D01*
X12831Y6387D01*
X12787Y6321D01*
X12772Y6243D01*
Y4695D01*
X12787Y4617D01*
X12831Y4551D01*
X12897Y4506D01*
X12975Y4491D01*
X13559D01*
Y2699D01*
X13583Y2516D01*
X13653Y2346D01*
X13765Y2199D01*
X14133Y1831D01*
X14085Y1714D01*
X12012D01*
X11966Y1708D01*
X11919D01*
X11875Y1696D01*
X11829Y1690D01*
X11786Y1672D01*
X11741Y1660D01*
X11701Y1637D01*
X11658Y1620D01*
X11622Y1591D01*
X11582Y1568D01*
X11549Y1536D01*
X11512Y1507D01*
X11484Y1471D01*
X11451Y1438D01*
X11428Y1398D01*
X11400Y1361D01*
X11382Y1318D01*
X11359Y1278D01*
X11347Y1234D01*
X11330Y1191D01*
X11323Y1145D01*
X11312Y1100D01*
Y1054D01*
X11305Y1008D01*
X11312Y962D01*
Y916D01*
X11323Y871D01*
X11330Y825D01*
X11347Y783D01*
X11359Y738D01*
X11382Y698D01*
X11400Y655D01*
X11428Y618D01*
X11451Y578D01*
X11484Y546D01*
X11493Y535D01*
X11465Y447D01*
X11436Y408D01*
X1842D01*
X1535Y469D01*
X1245Y589D01*
X984Y763D01*
X762Y985D01*
X588Y1246D01*
X468Y1535D01*
X509Y1574D01*
X582Y1613D01*
X602Y1604D01*
X642Y1581D01*
X687Y1569D01*
X730Y1552D01*
X776Y1546D01*
X820Y1534D01*
X867D01*
X913Y1527D01*
X3742D01*
X3925Y1552D01*
X4095Y1622D01*
X4242Y1734D01*
X5443Y2936D01*
X5555Y3082D01*
X5626Y3252D01*
X5650Y3435D01*
Y6134D01*
X6200Y6685D01*
X6266Y6676D01*
X6290Y6600D01*
X6294Y6544D01*
X6157Y6407D01*
X6077Y6214D01*
Y6006D01*
X6157Y5813D01*
X6305Y5665D01*
X6498Y5585D01*
X6707D01*
X6900Y5665D01*
X7048Y5813D01*
X7128Y6006D01*
Y6214D01*
X7048Y6407D01*
X6900Y6555D01*
X6857Y6573D01*
X6882Y6700D01*
X8407D01*
Y6302D01*
X8422Y6224D01*
X8466Y6158D01*
X8533Y6114D01*
X8611Y6098D01*
X10033D01*
X10111Y6114D01*
X10177Y6158D01*
X10221Y6224D01*
X10237Y6302D01*
Y11712D01*
X10221Y11790D01*
X10177Y11856D01*
X10111Y11901D01*
X10033Y11916D01*
X8611D01*
X8533Y11901D01*
X8466Y11856D01*
X8422Y11790D01*
X8407Y11712D01*
Y10327D01*
Y8112D01*
X5923D01*
X5740Y8088D01*
X5570Y8017D01*
X5424Y7905D01*
X4444Y6926D01*
X4332Y6780D01*
X4262Y6609D01*
X4238Y6427D01*
Y3727D01*
X3450Y2940D01*
X913D01*
X867Y2934D01*
X820D01*
X776Y2922D01*
X730Y2915D01*
X687Y2898D01*
X642Y2886D01*
X602Y2863D01*
X560Y2845D01*
X534Y2825D01*
X497Y2833D01*
X410Y2886D01*
X407Y2889D01*
Y16681D01*
X534Y16694D01*
X592Y16400D01*
X773Y15963D01*
X1036Y15570D01*
X1370Y15236D01*
X1763Y14973D01*
X2200Y14792D01*
X2664Y14700D01*
X3136D01*
X3600Y14792D01*
X4037Y14973D01*
X4430Y15236D01*
X4764Y15570D01*
X5027Y15963D01*
X5208Y16400D01*
X5300Y16864D01*
Y17336D01*
X5208Y17800D01*
X5027Y18237D01*
X4764Y18630D01*
X4430Y18964D01*
X4037Y19227D01*
X3600Y19408D01*
X3313Y19465D01*
X3325Y19592D01*
X29327D01*
Y12760D01*
D02*
G37*
G36*
X17646Y12945D02*
X17688Y12918D01*
X17733Y12895D01*
X17781Y12874D01*
X17831Y12857D01*
X17884Y12843D01*
X17940Y12832D01*
X17999Y12824D01*
X18061Y12819D01*
X18126Y12818D01*
Y12672D01*
X18061Y12670D01*
X17940Y12658D01*
X17884Y12647D01*
X17831Y12632D01*
X17781Y12615D01*
X17733Y12595D01*
X17688Y12571D01*
X17646Y12544D01*
X17607Y12514D01*
Y12975D01*
X17646Y12945D01*
D02*
G37*
G36*
X16788Y11023D02*
X16743Y10976D01*
X16667Y10882D01*
X16635Y10835D01*
X16607Y10787D01*
X16584Y10739D01*
X16565Y10691D01*
X16550Y10642D01*
X16539Y10594D01*
X16532Y10545D01*
X16207Y10871D01*
X16256Y10877D01*
X16304Y10888D01*
X16353Y10903D01*
X16401Y10922D01*
X16449Y10946D01*
X16496Y10973D01*
X16544Y11005D01*
X16591Y11041D01*
X16638Y11082D01*
X16685Y11126D01*
X16788Y11023D01*
D02*
G37*
G36*
X25918Y8383D02*
X25929Y8335D01*
X25944Y8286D01*
X25963Y8238D01*
X25987Y8190D01*
X26015Y8142D01*
X26046Y8095D01*
X26083Y8048D01*
X26123Y8001D01*
X26167Y7954D01*
X26064Y7851D01*
X26018Y7895D01*
X25923Y7972D01*
X25876Y8004D01*
X25828Y8031D01*
X25780Y8055D01*
X25732Y8074D01*
X25684Y8089D01*
X25635Y8100D01*
X25586Y8106D01*
X25912Y8432D01*
X25918Y8383D01*
D02*
G37*
G36*
X25253Y7715D02*
X25347Y7638D01*
X25395Y7606D01*
X25442Y7579D01*
X25490Y7555D01*
X25539Y7536D01*
X25587Y7521D01*
X25636Y7510D01*
X25685Y7504D01*
X25359Y7178D01*
X25352Y7227D01*
X25341Y7275D01*
X25326Y7324D01*
X25307Y7372D01*
X25284Y7420D01*
X25256Y7468D01*
X25224Y7515D01*
X25188Y7562D01*
X25148Y7609D01*
X25103Y7656D01*
X25206Y7759D01*
X25253Y7715D01*
D02*
G37*
G36*
X10033Y6302D02*
X8611D01*
Y10327D01*
Y11712D01*
X10033D01*
Y6302D01*
D02*
G37*
G36*
X25387Y6395D02*
X25531Y6269D01*
X25573Y6238D01*
X25612Y6212D01*
X25648Y6191D01*
X25681Y6176D01*
X25711Y6165D01*
X25738Y6160D01*
X25412Y5835D01*
X25407Y5862D01*
X25397Y5892D01*
X25382Y5925D01*
X25361Y5961D01*
X25335Y6000D01*
X25303Y6042D01*
X25225Y6135D01*
X25125Y6239D01*
X25334Y6448D01*
X25387Y6395D01*
D02*
G37*
G36*
X21660Y5975D02*
X21703Y5946D01*
X21748Y5919D01*
X21796Y5897D01*
X21847Y5878D01*
X21900Y5862D01*
X21955Y5850D01*
X22013Y5841D01*
X22073Y5836D01*
X22136Y5834D01*
X22124Y5688D01*
X22058Y5687D01*
X21935Y5676D01*
X21878Y5666D01*
X21825Y5653D01*
X21774Y5638D01*
X21727Y5619D01*
X21683Y5598D01*
X21642Y5574D01*
X21605Y5548D01*
X21619Y6008D01*
X21660Y5975D01*
D02*
G37*
G36*
X20849Y5854D02*
X20804Y5807D01*
X20728Y5713D01*
X20696Y5665D01*
X20668Y5617D01*
X20645Y5569D01*
X20626Y5521D01*
X20611Y5473D01*
X20600Y5424D01*
X20593Y5375D01*
X20268Y5701D01*
X20316Y5708D01*
X20365Y5719D01*
X20413Y5734D01*
X20462Y5753D01*
X20510Y5776D01*
X20557Y5804D01*
X20605Y5836D01*
X20652Y5872D01*
X20699Y5912D01*
X20746Y5957D01*
X20849Y5854D01*
D02*
G37*
G36*
X22206Y5366D02*
X22248Y5339D01*
X22293Y5316D01*
X22340Y5295D01*
X22391Y5278D01*
X22444Y5264D01*
X22500Y5253D01*
X22559Y5245D01*
X22621Y5240D01*
X22686Y5238D01*
Y5093D01*
X22621Y5091D01*
X22500Y5078D01*
X22444Y5067D01*
X22391Y5053D01*
X22340Y5036D01*
X22293Y5015D01*
X22248Y4992D01*
X22206Y4965D01*
X22167Y4935D01*
Y5396D01*
X22206Y5366D01*
D02*
G37*
G36*
X14916Y4695D02*
X12975D01*
Y6243D01*
X14916D01*
Y4695D01*
D02*
G37*
G36*
X25516Y4365D02*
X25494Y4380D01*
X25465Y4394D01*
X25431Y4407D01*
X25390Y4418D01*
X25344Y4427D01*
X25293Y4434D01*
X25172Y4444D01*
X25027Y4448D01*
Y4742D01*
X25102Y4743D01*
X25293Y4756D01*
X25344Y4763D01*
X25390Y4772D01*
X25431Y4783D01*
X25465Y4796D01*
X25494Y4810D01*
X25516Y4825D01*
Y4365D01*
D02*
G37*
G36*
X46463Y19531D02*
X46753Y19411D01*
X47014Y19236D01*
X47236Y19015D01*
X47410Y18754D01*
X47530Y18464D01*
X47591Y18157D01*
Y18000D01*
Y2000D01*
Y1843D01*
X47530Y1535D01*
X47410Y1246D01*
X47236Y985D01*
X47014Y763D01*
X46753Y589D01*
X46463Y469D01*
X46156Y408D01*
X34682D01*
X34682Y11098D01*
Y19592D01*
X46156D01*
X46463Y19531D01*
D02*
G37*
%LPC*%
G36*
X17710Y19216D02*
Y18390D01*
X18536D01*
X18489Y18566D01*
X18343Y18818D01*
X18138Y19023D01*
X17886Y19169D01*
X17710Y19216D01*
D02*
G37*
G36*
X17210D02*
X17034Y19169D01*
X16782Y19023D01*
X16577Y18818D01*
X16431Y18566D01*
X16384Y18390D01*
X17210D01*
Y19216D01*
D02*
G37*
G36*
X27758Y19190D02*
X27482D01*
X27215Y19118D01*
X26975Y18980D01*
X26780Y18785D01*
X26642Y18545D01*
X26570Y18278D01*
Y18002D01*
X26642Y17735D01*
X26780Y17495D01*
X26975Y17300D01*
X27215Y17162D01*
X27482Y17090D01*
X27758D01*
X28025Y17162D01*
X28265Y17300D01*
X28460Y17495D01*
X28598Y17735D01*
X28670Y18002D01*
Y18278D01*
X28598Y18545D01*
X28460Y18785D01*
X28265Y18980D01*
X28025Y19118D01*
X27758Y19190D01*
D02*
G37*
G36*
X25218D02*
X24942D01*
X24675Y19118D01*
X24435Y18980D01*
X24240Y18785D01*
X24102Y18545D01*
X24030Y18278D01*
Y18002D01*
X24102Y17735D01*
X24240Y17495D01*
X24435Y17300D01*
X24675Y17162D01*
X24942Y17090D01*
X25218D01*
X25485Y17162D01*
X25725Y17300D01*
X25920Y17495D01*
X26058Y17735D01*
X26130Y18002D01*
Y18278D01*
X26058Y18545D01*
X25920Y18785D01*
X25725Y18980D01*
X25485Y19118D01*
X25218Y19190D01*
D02*
G37*
G36*
X22678D02*
X22402D01*
X22135Y19118D01*
X21895Y18980D01*
X21700Y18785D01*
X21562Y18545D01*
X21490Y18278D01*
Y18002D01*
X21562Y17735D01*
X21700Y17495D01*
X21895Y17300D01*
X22135Y17162D01*
X22402Y17090D01*
X22678D01*
X22945Y17162D01*
X23185Y17300D01*
X23380Y17495D01*
X23518Y17735D01*
X23590Y18002D01*
Y18278D01*
X23518Y18545D01*
X23380Y18785D01*
X23185Y18980D01*
X22945Y19118D01*
X22678Y19190D01*
D02*
G37*
G36*
X20138D02*
X19862D01*
X19595Y19118D01*
X19355Y18980D01*
X19160Y18785D01*
X19022Y18545D01*
X18950Y18278D01*
Y18002D01*
X19022Y17735D01*
X19160Y17495D01*
X19355Y17300D01*
X19595Y17162D01*
X19862Y17090D01*
X20138D01*
X20405Y17162D01*
X20645Y17300D01*
X20840Y17495D01*
X20978Y17735D01*
X21050Y18002D01*
Y18278D01*
X20978Y18545D01*
X20840Y18785D01*
X20645Y18980D01*
X20405Y19118D01*
X20138Y19190D01*
D02*
G37*
G36*
X7438D02*
X7162D01*
X6895Y19118D01*
X6655Y18980D01*
X6460Y18785D01*
X6322Y18545D01*
X6250Y18278D01*
Y18002D01*
X6322Y17735D01*
X6460Y17495D01*
X6655Y17300D01*
X6895Y17162D01*
X7162Y17090D01*
X7438D01*
X7705Y17162D01*
X7945Y17300D01*
X8140Y17495D01*
X8278Y17735D01*
X8350Y18002D01*
Y18278D01*
X8278Y18545D01*
X8140Y18785D01*
X7945Y18980D01*
X7705Y19118D01*
X7438Y19190D01*
D02*
G37*
G36*
X18536Y17890D02*
X17710D01*
Y17064D01*
X17886Y17111D01*
X18138Y17257D01*
X18343Y17462D01*
X18489Y17714D01*
X18536Y17890D01*
D02*
G37*
G36*
X17210D02*
X16384D01*
X16431Y17714D01*
X16577Y17462D01*
X16782Y17257D01*
X17034Y17111D01*
X17210Y17064D01*
Y17890D01*
D02*
G37*
G36*
X17710Y16676D02*
Y15850D01*
X18536D01*
X18489Y16026D01*
X18343Y16278D01*
X18138Y16483D01*
X17886Y16629D01*
X17710Y16676D01*
D02*
G37*
G36*
X18536Y15350D02*
X17710D01*
Y14524D01*
X17886Y14571D01*
X18138Y14717D01*
X18343Y14922D01*
X18489Y15174D01*
X18536Y15350D01*
D02*
G37*
G36*
X7653Y14080D02*
X7352D01*
Y13570D01*
X8365D01*
X8311Y13700D01*
X8190Y13858D01*
X8033Y13979D01*
X7849Y14055D01*
X7653Y14080D01*
D02*
G37*
G36*
X3322D02*
X3172D01*
Y13570D01*
X4035D01*
X3981Y13700D01*
X3860Y13858D01*
X3703Y13979D01*
X3519Y14055D01*
X3322Y14080D01*
D02*
G37*
G36*
X2672D02*
X2523D01*
X2326Y14055D01*
X2142Y13979D01*
X1985Y13858D01*
X1864Y13700D01*
X1810Y13570D01*
X2672D01*
Y14080D01*
D02*
G37*
G36*
X6852D02*
X6552D01*
X6356Y14055D01*
X6172Y13979D01*
X6015Y13858D01*
X5894Y13700D01*
X5840Y13570D01*
X6852D01*
Y14080D01*
D02*
G37*
G36*
X8365Y13070D02*
X7352D01*
Y12559D01*
X7653D01*
X7849Y12585D01*
X8033Y12661D01*
X8190Y12782D01*
X8311Y12940D01*
X8365Y13070D01*
D02*
G37*
G36*
X6852D02*
X5840D01*
X5894Y12940D01*
X6015Y12782D01*
X6172Y12661D01*
X6356Y12585D01*
X6552Y12559D01*
X6852D01*
Y13070D01*
D02*
G37*
G36*
X4035D02*
X3172D01*
Y12559D01*
X3322D01*
X3519Y12585D01*
X3703Y12661D01*
X3860Y12782D01*
X3981Y12940D01*
X4035Y13070D01*
D02*
G37*
G36*
X2672D02*
X1810D01*
X1864Y12940D01*
X1985Y12782D01*
X2142Y12661D01*
X2326Y12585D01*
X2523Y12559D01*
X2672D01*
Y13070D01*
D02*
G37*
G36*
X6707Y12415D02*
X6498D01*
X6305Y12335D01*
X6157Y12187D01*
X6077Y11994D01*
Y11786D01*
X6157Y11593D01*
X6305Y11445D01*
X6498Y11365D01*
X6707D01*
X6900Y11445D01*
X7048Y11593D01*
X7128Y11786D01*
Y11994D01*
X7048Y12187D01*
X6900Y12335D01*
X6707Y12415D01*
D02*
G37*
G36*
X6582Y10330D02*
X6383D01*
X6200Y10254D01*
X6059Y10113D01*
X5983Y9929D01*
Y9730D01*
X6059Y9547D01*
X6089Y9516D01*
X6090Y9514D01*
X6115Y9481D01*
X6133Y9454D01*
X6149Y9423D01*
X6163Y9390D01*
X6176Y9354D01*
X6187Y9314D01*
X6193Y9280D01*
X6188Y9250D01*
X6178Y9209D01*
X6166Y9173D01*
X6153Y9139D01*
X6138Y9110D01*
X6122Y9083D01*
X6102Y9055D01*
X6076Y9029D01*
X6000Y8846D01*
Y8647D01*
X6076Y8463D01*
X6217Y8322D01*
X6401Y8246D01*
X6600D01*
X6783Y8322D01*
X6924Y8463D01*
X7000Y8647D01*
Y8846D01*
X6924Y9029D01*
X6888Y9066D01*
X6885Y9072D01*
X6858Y9106D01*
X6838Y9135D01*
X6820Y9166D01*
X6805Y9199D01*
X6791Y9235D01*
X6780Y9274D01*
X6775Y9296D01*
X6779Y9314D01*
X6790Y9354D01*
X6802Y9390D01*
X6817Y9423D01*
X6833Y9454D01*
X6850Y9481D01*
X6875Y9514D01*
X6876Y9516D01*
X6907Y9547D01*
X6983Y9730D01*
Y9929D01*
X6907Y10113D01*
X6766Y10254D01*
X6582Y10330D01*
D02*
G37*
G36*
X7653Y5440D02*
X7352D01*
Y4930D01*
X8365D01*
X8311Y5060D01*
X8190Y5218D01*
X8033Y5339D01*
X7849Y5415D01*
X7653Y5440D01*
D02*
G37*
G36*
X3322D02*
X3172D01*
Y4930D01*
X4035D01*
X3981Y5060D01*
X3860Y5218D01*
X3703Y5339D01*
X3519Y5415D01*
X3322Y5440D01*
D02*
G37*
G36*
X2672D02*
X2523D01*
X2326Y5415D01*
X2142Y5339D01*
X1985Y5218D01*
X1864Y5060D01*
X1810Y4930D01*
X2672D01*
Y5440D01*
D02*
G37*
G36*
X6852D02*
X6552D01*
X6356Y5415D01*
X6172Y5339D01*
X6015Y5218D01*
X5894Y5060D01*
X5840Y4930D01*
X6852D01*
Y5440D01*
D02*
G37*
G36*
X8365Y4430D02*
X7352D01*
Y3919D01*
X7653D01*
X7849Y3945D01*
X8033Y4021D01*
X8190Y4142D01*
X8311Y4300D01*
X8365Y4430D01*
D02*
G37*
G36*
X6852D02*
X5840D01*
X5894Y4300D01*
X6015Y4142D01*
X6172Y4021D01*
X6356Y3945D01*
X6552Y3919D01*
X6852D01*
Y4430D01*
D02*
G37*
G36*
X4035D02*
X3172D01*
Y3919D01*
X3322D01*
X3519Y3945D01*
X3703Y4021D01*
X3860Y4142D01*
X3981Y4300D01*
X4035Y4430D01*
D02*
G37*
G36*
X2672D02*
X1810D01*
X1864Y4300D01*
X1985Y4142D01*
X2142Y4021D01*
X2326Y3945D01*
X2523Y3919D01*
X2672D01*
Y4430D01*
D02*
G37*
%LPD*%
G36*
X6683Y9598D02*
X6656Y9556D01*
X6633Y9511D01*
X6612Y9464D01*
X6595Y9413D01*
X6580Y9360D01*
X6569Y9304D01*
X6568Y9295D01*
X6570Y9279D01*
X6582Y9224D01*
X6598Y9171D01*
X6617Y9120D01*
X6639Y9072D01*
X6664Y9027D01*
X6693Y8984D01*
X6726Y8944D01*
X6265Y8933D01*
X6293Y8971D01*
X6318Y9012D01*
X6339Y9056D01*
X6358Y9104D01*
X6374Y9154D01*
X6387Y9208D01*
X6397Y9264D01*
X6399Y9278D01*
X6396Y9304D01*
X6385Y9360D01*
X6371Y9413D01*
X6354Y9464D01*
X6333Y9511D01*
X6309Y9556D01*
X6282Y9598D01*
X6252Y9638D01*
X6713D01*
X6683Y9598D01*
D02*
G37*
%LPC*%
G36*
X39054Y18774D02*
X38855D01*
X38672Y18698D01*
X38531Y18557D01*
X38455Y18374D01*
Y18175D01*
X38531Y17991D01*
X38561Y17961D01*
X38562Y17958D01*
X38587Y17926D01*
X38605Y17898D01*
X38621Y17868D01*
X38635Y17835D01*
X38647Y17798D01*
X38658Y17759D01*
X38666Y17718D01*
X38677Y17616D01*
Y16482D01*
Y15797D01*
X38698Y15690D01*
X38699Y15688D01*
X38739Y15577D01*
X38634Y15421D01*
X38597Y15237D01*
X38634Y15052D01*
X38739Y14896D01*
X38739Y14896D01*
X38895Y14791D01*
X39051Y14760D01*
X39116Y14708D01*
X39168Y14643D01*
X39200Y14487D01*
X39304Y14330D01*
X39304Y14330D01*
X39460Y14226D01*
X39616Y14195D01*
X39728Y14106D01*
X39765Y13921D01*
X39869Y13765D01*
X39869Y13765D01*
X39869Y13765D01*
X40026Y13660D01*
X40210Y13624D01*
X40395Y13660D01*
X40551Y13765D01*
X40656Y13711D01*
X40720Y13668D01*
X40827Y13647D01*
X42815D01*
X42849Y13520D01*
X42815Y13500D01*
X42620Y13305D01*
X42482Y13065D01*
X42410Y12798D01*
Y12602D01*
X42291Y12579D01*
X42266Y12562D01*
X42255Y12568D01*
X42158Y12641D01*
X42121Y12826D01*
X42017Y12982D01*
X41860Y13087D01*
X41676Y13124D01*
X41676D01*
X41676D01*
Y13124D01*
X41492Y13087D01*
X41359Y12998D01*
X41276Y12989D01*
X41193Y12998D01*
X41061Y13087D01*
X40876Y13124D01*
X40876D01*
X40876D01*
Y13124D01*
X40692Y13087D01*
X40560Y12998D01*
X40477Y12989D01*
X40394Y12998D01*
X40261Y13087D01*
X40077Y13124D01*
X40077D01*
X40077D01*
Y13124D01*
X39892Y13087D01*
X39760Y12998D01*
X39677Y12989D01*
X39594Y12998D01*
X39462Y13087D01*
X39277Y13124D01*
X39277D01*
X39277D01*
Y13124D01*
X39093Y13087D01*
X38936Y12982D01*
X38832Y12826D01*
X38808Y12704D01*
X38671Y12662D01*
X38576Y12757D01*
X38392Y12833D01*
X38193D01*
X38010Y12757D01*
X37869Y12617D01*
X37793Y12433D01*
Y12234D01*
X37869Y12050D01*
X38010Y11909D01*
X38193Y11833D01*
X38392D01*
X38576Y11909D01*
X38717Y12050D01*
X38717Y12052D01*
X38750Y12055D01*
X38877Y12051D01*
Y12051D01*
X39062Y12088D01*
X39087Y12105D01*
X39098Y12098D01*
X39195Y12025D01*
X39232Y11841D01*
X39336Y11684D01*
X39493Y11580D01*
X39677Y11543D01*
X39677D01*
X39677D01*
Y11543D01*
X39861Y11580D01*
X39994Y11668D01*
X40077Y11678D01*
X40160Y11668D01*
X40292Y11580D01*
X40477Y11543D01*
X40477D01*
X40477D01*
Y11543D01*
X40661Y11580D01*
X40793Y11668D01*
X40876Y11678D01*
X40959Y11668D01*
X41092Y11580D01*
X41276Y11543D01*
X41276D01*
X41276D01*
Y11543D01*
X41461Y11580D01*
X41617Y11684D01*
X41627Y11700D01*
X41789Y11714D01*
X41891Y11646D01*
X42076Y11609D01*
X42076D01*
X42076D01*
Y11609D01*
X42260Y11646D01*
X42417Y11750D01*
X42521Y11906D01*
X42527Y11934D01*
X42664Y11972D01*
X42815Y11820D01*
X43055Y11682D01*
X43322Y11610D01*
X43598D01*
X43865Y11682D01*
X44105Y11820D01*
X44300Y12015D01*
X44438Y12255D01*
X44510Y12522D01*
Y12798D01*
X44438Y13065D01*
X44300Y13305D01*
X44162Y13443D01*
X44200Y13584D01*
X44221Y13590D01*
X44963Y12848D01*
X44950Y12798D01*
Y12522D01*
X45022Y12255D01*
X45160Y12015D01*
X45355Y11820D01*
X45595Y11682D01*
X45862Y11610D01*
X46138D01*
X46405Y11682D01*
X46645Y11820D01*
X46840Y12015D01*
X46978Y12255D01*
X47050Y12522D01*
Y12798D01*
X46978Y13065D01*
X46840Y13305D01*
X46645Y13500D01*
X46405Y13638D01*
X46138Y13710D01*
X45862D01*
X45595Y13638D01*
X45355Y13500D01*
X45226Y13371D01*
X44476Y14122D01*
X44386Y14182D01*
X44279Y14203D01*
X44088D01*
X44054Y14330D01*
X44105Y14360D01*
X44198Y14453D01*
X44205Y14458D01*
X44210Y14465D01*
X44300Y14555D01*
X44349Y14640D01*
X44397Y14654D01*
X44479Y14671D01*
X44682Y14690D01*
X44794D01*
X44872Y14685D01*
X44978Y14672D01*
X45063Y14654D01*
X45111Y14640D01*
X45160Y14555D01*
X45250Y14465D01*
X45255Y14458D01*
X45262Y14453D01*
X45355Y14360D01*
X45595Y14222D01*
X45862Y14150D01*
X46138D01*
X46405Y14222D01*
X46645Y14360D01*
X46840Y14555D01*
X46978Y14795D01*
X47050Y15062D01*
Y15338D01*
X46978Y15605D01*
X46840Y15845D01*
X46645Y16040D01*
X46405Y16178D01*
X46138Y16250D01*
X45862D01*
X45595Y16178D01*
X45355Y16040D01*
X45262Y15947D01*
X45255Y15942D01*
X45250Y15935D01*
X45160Y15845D01*
X45111Y15760D01*
X45063Y15746D01*
X44981Y15729D01*
X44778Y15710D01*
X44666D01*
X44588Y15715D01*
X44482Y15728D01*
X44397Y15746D01*
X44349Y15760D01*
X44300Y15845D01*
X44210Y15935D01*
X44205Y15942D01*
X44198Y15947D01*
X44105Y16040D01*
X43865Y16178D01*
X43598Y16250D01*
X43322D01*
X43055Y16178D01*
X42815Y16040D01*
X42620Y15845D01*
X42482Y15605D01*
X42410Y15338D01*
Y15062D01*
X42482Y14795D01*
X42620Y14555D01*
X42815Y14360D01*
X42866Y14330D01*
X42832Y14203D01*
X41022D01*
X40910Y14240D01*
X40910Y14240D01*
X40754Y14345D01*
X40724Y14351D01*
X40721Y14363D01*
X40704Y14483D01*
X40809Y14640D01*
X40845Y14824D01*
X40809Y15009D01*
X40704Y15165D01*
X40704Y15165D01*
X40605Y15232D01*
X40601Y15234D01*
X40548Y15270D01*
X40363Y15306D01*
X40280Y15390D01*
X40243Y15574D01*
X40139Y15730D01*
X40139Y15730D01*
X40139Y15730D01*
D01*
X39982Y15835D01*
X39798Y15872D01*
X39613Y15835D01*
X39457Y15730D01*
X39335Y15748D01*
X39325Y15751D01*
X39319Y15780D01*
X39233Y15908D01*
Y16482D01*
Y17618D01*
X39237Y17668D01*
X39243Y17715D01*
X39252Y17759D01*
X39262Y17798D01*
X39275Y17835D01*
X39289Y17868D01*
X39305Y17898D01*
X39323Y17926D01*
X39347Y17958D01*
X39349Y17961D01*
X39379Y17991D01*
X39455Y18175D01*
Y18374D01*
X39379Y18557D01*
X39238Y18698D01*
X39054Y18774D01*
D02*
G37*
G36*
X46138Y11170D02*
X45862D01*
X45595Y11098D01*
X45355Y10960D01*
X45160Y10765D01*
X45022Y10525D01*
X44950Y10258D01*
Y9982D01*
X45022Y9715D01*
X45160Y9475D01*
X45355Y9280D01*
X45595Y9142D01*
X45862Y9070D01*
X46138D01*
X46405Y9142D01*
X46645Y9280D01*
X46840Y9475D01*
X46978Y9715D01*
X47050Y9982D01*
Y10258D01*
X46978Y10525D01*
X46840Y10765D01*
X46645Y10960D01*
X46405Y11098D01*
X46138Y11170D01*
D02*
G37*
G36*
X37302Y12455D02*
X37103D01*
X36919Y12379D01*
X36779Y12239D01*
X36702Y12055D01*
Y11856D01*
X36779Y11672D01*
X36919Y11532D01*
X37103Y11455D01*
X37132D01*
X37135Y11451D01*
X38663Y9923D01*
X38753Y9863D01*
X38860Y9842D01*
X41099D01*
Y9838D01*
X41283Y9875D01*
X41303Y9887D01*
X41305Y9887D01*
X41424Y9816D01*
X41453Y9671D01*
X41558Y9515D01*
X41714Y9410D01*
X41898Y9373D01*
X41898D01*
X41898D01*
Y9373D01*
X42083Y9410D01*
X42239Y9515D01*
X42344Y9671D01*
X42351Y9710D01*
X42480Y9715D01*
X42482Y9714D01*
X42620Y9475D01*
X42815Y9280D01*
X43055Y9142D01*
X43322Y9070D01*
X43598D01*
X43865Y9142D01*
X44105Y9280D01*
X44300Y9475D01*
X44438Y9715D01*
X44510Y9982D01*
Y10258D01*
X44438Y10525D01*
X44300Y10765D01*
X44105Y10960D01*
X43865Y11098D01*
X43598Y11170D01*
X43322D01*
X43055Y11098D01*
X42815Y10960D01*
X42620Y10765D01*
X42482Y10525D01*
X42448Y10398D01*
X42298D01*
Y10402D01*
X42114Y10365D01*
X42103Y10358D01*
X41961Y10416D01*
X41944Y10504D01*
X41840Y10661D01*
X41683Y10765D01*
X41499Y10802D01*
X41499D01*
X41499D01*
Y10802D01*
X41314Y10765D01*
X41158Y10661D01*
X41053Y10504D01*
X41032Y10398D01*
X38975D01*
X37648Y11725D01*
X37702Y11856D01*
Y12055D01*
X37626Y12239D01*
X37486Y12379D01*
X37302Y12455D01*
D02*
G37*
G36*
X46138Y8630D02*
X45862D01*
X45595Y8558D01*
X45355Y8420D01*
X45160Y8225D01*
X45022Y7985D01*
X44950Y7718D01*
Y7442D01*
X45022Y7175D01*
X45160Y6935D01*
X45355Y6740D01*
X45595Y6602D01*
X45862Y6530D01*
X46138D01*
X46405Y6602D01*
X46645Y6740D01*
X46840Y6935D01*
X46978Y7175D01*
X47050Y7442D01*
Y7718D01*
X46978Y7985D01*
X46840Y8225D01*
X46645Y8420D01*
X46405Y8558D01*
X46138Y8630D01*
D02*
G37*
G36*
X43598D02*
X43322D01*
X43055Y8558D01*
X42815Y8420D01*
X42620Y8225D01*
X42482Y7985D01*
X42410Y7718D01*
Y7442D01*
X42482Y7175D01*
X42620Y6935D01*
X42815Y6740D01*
X43055Y6602D01*
X43322Y6530D01*
X43598D01*
X43865Y6602D01*
X44105Y6740D01*
X44300Y6935D01*
X44438Y7175D01*
X44510Y7442D01*
Y7718D01*
X44438Y7985D01*
X44300Y8225D01*
X44105Y8420D01*
X43865Y8558D01*
X43598Y8630D01*
D02*
G37*
G36*
X46138Y6090D02*
X45862D01*
X45595Y6018D01*
X45355Y5880D01*
X45160Y5685D01*
X45022Y5445D01*
X44950Y5178D01*
Y4902D01*
X45022Y4635D01*
X45160Y4395D01*
X45355Y4200D01*
X45595Y4062D01*
X45862Y3990D01*
X46138D01*
X46405Y4062D01*
X46645Y4200D01*
X46840Y4395D01*
X46978Y4635D01*
X47050Y4902D01*
Y5178D01*
X46978Y5445D01*
X46840Y5685D01*
X46645Y5880D01*
X46405Y6018D01*
X46138Y6090D01*
D02*
G37*
G36*
X43598D02*
X43322D01*
X43055Y6018D01*
X42815Y5880D01*
X42620Y5685D01*
X42482Y5445D01*
X42410Y5178D01*
Y4902D01*
X42482Y4635D01*
X42620Y4395D01*
X42815Y4200D01*
X43055Y4062D01*
X43322Y3990D01*
X43598D01*
X43865Y4062D01*
X44105Y4200D01*
X44300Y4395D01*
X44438Y4635D01*
X44510Y4902D01*
Y5178D01*
X44438Y5445D01*
X44300Y5685D01*
X44105Y5880D01*
X43865Y6018D01*
X43598Y6090D01*
D02*
G37*
G36*
X43710Y3576D02*
Y2750D01*
X44536D01*
X44489Y2926D01*
X44343Y3178D01*
X44138Y3383D01*
X43886Y3529D01*
X43710Y3576D01*
D02*
G37*
G36*
X47104Y3604D02*
X46250D01*
Y2750D01*
X47104D01*
Y3604D01*
D02*
G37*
G36*
X43210Y3576D02*
X43034Y3529D01*
X42782Y3383D01*
X42577Y3178D01*
X42431Y2926D01*
X42384Y2750D01*
X43210D01*
Y3576D01*
D02*
G37*
G36*
X45750Y3604D02*
X44896D01*
Y2750D01*
X45750D01*
Y3604D01*
D02*
G37*
G36*
X44536Y2250D02*
X43710D01*
Y1424D01*
X43886Y1471D01*
X44138Y1617D01*
X44343Y1822D01*
X44489Y2074D01*
X44536Y2250D01*
D02*
G37*
G36*
X43210D02*
X42384D01*
X42431Y2074D01*
X42577Y1822D01*
X42782Y1617D01*
X43034Y1471D01*
X43210Y1424D01*
Y2250D01*
D02*
G37*
G36*
X47104D02*
X46250D01*
Y1396D01*
X47104D01*
Y2250D01*
D02*
G37*
G36*
X45750D02*
X44896D01*
Y1396D01*
X45750D01*
Y2250D01*
D02*
G37*
%LPD*%
G36*
X39155Y18043D02*
X39129Y18001D01*
X39105Y17956D01*
X39084Y17908D01*
X39067Y17858D01*
X39053Y17804D01*
X39042Y17748D01*
X39034Y17689D01*
X39029Y17628D01*
X39028Y17563D01*
X38882D01*
X38880Y17628D01*
X38868Y17748D01*
X38857Y17804D01*
X38843Y17858D01*
X38825Y17908D01*
X38805Y17956D01*
X38781Y18001D01*
X38754Y18043D01*
X38724Y18082D01*
X39185D01*
X39155Y18043D01*
D02*
G37*
G36*
X45399Y14602D02*
X45391Y14659D01*
X45367Y14709D01*
X45328Y14754D01*
X45272Y14793D01*
X45201Y14825D01*
X45114Y14852D01*
X45010Y14873D01*
X44891Y14888D01*
X44757Y14897D01*
X44730Y14898D01*
X44703Y14897D01*
X44450Y14873D01*
X44346Y14852D01*
X44259Y14825D01*
X44188Y14793D01*
X44132Y14754D01*
X44093Y14709D01*
X44069Y14659D01*
X44061Y14602D01*
Y15798D01*
X44069Y15741D01*
X44093Y15691D01*
X44132Y15646D01*
X44188Y15607D01*
X44259Y15575D01*
X44346Y15548D01*
X44450Y15527D01*
X44569Y15512D01*
X44703Y15503D01*
X44730Y15502D01*
X44757Y15503D01*
X45010Y15527D01*
X45114Y15548D01*
X45201Y15575D01*
X45272Y15607D01*
X45328Y15646D01*
X45367Y15691D01*
X45391Y15741D01*
X45399Y15798D01*
Y14602D01*
D02*
G37*
G36*
X45170Y13139D02*
X45190Y13122D01*
X45208Y13109D01*
X45224Y13100D01*
X45239Y13094D01*
X45253Y13092D01*
X45264Y13094D01*
X45275Y13100D01*
X45283Y13109D01*
X45290Y13122D01*
X45170Y12830D01*
X45174Y12845D01*
X45176Y12861D01*
X45175Y12877D01*
X45171Y12894D01*
X45164Y12912D01*
X45154Y12931D01*
X45142Y12950D01*
X45127Y12970D01*
X45109Y12992D01*
X45088Y13013D01*
X45148Y13159D01*
X45170Y13139D01*
D02*
G37*
G36*
X38573Y12445D02*
X38584Y12437D01*
X38598Y12430D01*
X38615Y12424D01*
X38637Y12418D01*
X38663Y12414D01*
X38692Y12411D01*
X38763Y12407D01*
X38804Y12406D01*
Y12260D01*
X38763Y12260D01*
X38663Y12253D01*
X38637Y12248D01*
X38615Y12243D01*
X38598Y12237D01*
X38584Y12230D01*
X38573Y12222D01*
X38567Y12212D01*
Y12454D01*
X38573Y12445D01*
D02*
G37*
G36*
X42755Y12189D02*
X42748Y12203D01*
X42738Y12215D01*
X42725Y12225D01*
X42710Y12235D01*
X42693Y12243D01*
X42673Y12249D01*
X42650Y12254D01*
X42625Y12258D01*
X42598Y12260D01*
X42567Y12260D01*
X42506Y12406D01*
X42536Y12407D01*
X42562Y12409D01*
X42584Y12413D01*
X42602Y12418D01*
X42617Y12425D01*
X42627Y12433D01*
X42634Y12442D01*
X42638Y12453D01*
X42637Y12466D01*
X42633Y12480D01*
X42755Y12189D01*
D02*
G37*
G36*
X42626Y9974D02*
X42625Y9988D01*
X42620Y10001D01*
X42612Y10012D01*
X42601Y10021D01*
X42587Y10029D01*
X42570Y10035D01*
X42550Y10041D01*
X42527Y10044D01*
X42500Y10046D01*
X42470Y10047D01*
Y10193D01*
X42500Y10194D01*
X42527Y10196D01*
X42550Y10199D01*
X42570Y10205D01*
X42587Y10211D01*
X42601Y10219D01*
X42612Y10228D01*
X42620Y10239D01*
X42625Y10252D01*
X42626Y10266D01*
Y9974D01*
D02*
G37*
D10*
X6483Y8764D02*
X6500Y8746D01*
X6483Y8764D02*
Y9830D01*
D11*
X39015Y15454D02*
G03*
X39015Y15737I-141J141D01*
G01*
X38938Y15378D02*
G03*
X38938Y15095I141J-141D01*
G01*
X38938Y15095D02*
G03*
X39221Y15095I141J141D01*
G01*
X39939Y15531D02*
G03*
X39657Y15531I-141J-141D01*
G01*
X39939Y15248D02*
G03*
X39939Y15531I-141J141D01*
G01*
X39504Y14813D02*
G03*
X39504Y14530I141J-141D01*
G01*
X39504Y14530D02*
G03*
X39786Y14530I141J141D01*
G01*
X40505Y14966D02*
G03*
X40222Y14966I-141J-141D01*
G01*
X40505Y14683D02*
G03*
X40505Y14966I-141J141D01*
G01*
X40069Y14247D02*
G03*
X40069Y13964I141J-141D01*
G01*
X40069Y13964D02*
G03*
X40352Y13964I141J141D01*
G01*
X40711Y14041D02*
G03*
X40428Y14041I-141J-141D01*
G01*
X41099Y10120D02*
G03*
X41299Y10320I0J200D01*
G01*
X41499Y10520D02*
G03*
X41299Y10320I0J-200D01*
G01*
X41699D02*
G03*
X41499Y10520I-200J0D01*
G01*
X41699Y9855D02*
G03*
X41898Y9656I200J0D01*
G01*
X41898D02*
G03*
X42098Y9855I0J200D01*
G01*
X42298Y10120D02*
G03*
X42098Y9920I0J-200D01*
G01*
X42476Y12333D02*
G03*
X42276Y12133I0J-200D01*
G01*
X42076Y11891D02*
G03*
X42276Y12091I0J200D01*
G01*
X41876D02*
G03*
X42076Y11891I200J0D01*
G01*
X41876Y12641D02*
G03*
X41676Y12841I-200J0D01*
G01*
X41676D02*
G03*
X41476Y12641I0J-200D01*
G01*
X41276Y11825D02*
G03*
X41476Y12025I0J200D01*
G01*
X41076D02*
G03*
X41276Y11825I200J0D01*
G01*
X41076Y12641D02*
G03*
X40876Y12841I-200J0D01*
G01*
X40876D02*
G03*
X40676Y12641I0J-200D01*
G01*
X40477Y11825D02*
G03*
X40676Y12025I0J200D01*
G01*
X40277D02*
G03*
X40477Y11825I200J0D01*
G01*
X40277Y12641D02*
G03*
X40077Y12841I-200J0D01*
G01*
X40077D02*
G03*
X39877Y12641I0J-200D01*
G01*
X39677Y11825D02*
G03*
X39877Y12025I0J200D01*
G01*
X39477D02*
G03*
X39677Y11825I200J0D01*
G01*
X39477Y12641D02*
G03*
X39277Y12841I-200J0D01*
G01*
X39277D02*
G03*
X39077Y12641I0J-200D01*
G01*
X38877Y12333D02*
G03*
X39077Y12533I0J200D01*
G01*
X24722Y3999D02*
X25820D01*
X23867Y4854D02*
X24722Y3999D01*
X25820D02*
X26416Y4596D01*
X17415Y12745D02*
X22978D01*
X23867Y11856D01*
X18298Y11740D02*
X18506Y11948D01*
X18195Y11987D02*
X18404Y12196D01*
X18093Y12235D02*
X18301Y12444D01*
X22929D01*
X15745Y12235D02*
X18093D01*
X18404Y12196D02*
X22826D01*
X15613Y11987D02*
X18195D01*
X22929Y12444D02*
X23619Y11754D01*
X22724Y11948D02*
X23123Y11548D01*
X18506Y11948D02*
X22724D01*
X15464Y11740D02*
X18298D01*
X22826Y12196D02*
X23371Y11651D01*
X18495Y11490D02*
X18705Y11700D01*
X16234Y10572D02*
X17152Y11490D01*
X18495D01*
X21982Y14555D02*
X22173Y14364D01*
X22833D01*
X21245Y14555D02*
X21982D01*
X22833Y14364D02*
X24909Y12288D01*
Y7954D02*
Y12288D01*
X23867Y4854D02*
Y11856D01*
X23371Y6145D02*
Y11651D01*
X23123Y6473D02*
Y11548D01*
X23619Y6042D02*
Y11754D01*
X21176Y6284D02*
X21627D01*
X20295Y5402D02*
X21176Y6284D01*
X24909Y7954D02*
X25657Y7205D01*
X21627Y6284D02*
X21628Y6283D01*
X21420Y5784D02*
X21443Y5761D01*
X21628Y6283D02*
X22934D01*
X21443Y5761D02*
X22988D01*
X22934Y6283D02*
X23123Y6473D01*
X12380Y15600D02*
X15745Y12235D01*
X13243Y14357D02*
X15613Y11987D01*
X13167Y14037D02*
X15464Y11740D01*
X22742Y5166D02*
X23090Y5513D01*
X23090D02*
X23619Y6042D01*
X22988Y5761D02*
X23371Y6145D01*
X23090Y5513D02*
X23090D01*
X18705Y11700D02*
X22261D01*
X22560Y11401D01*
X7300Y15600D02*
X8528Y14372D01*
X10120D01*
X10455Y14037D01*
X13167D01*
X10803Y14357D02*
X13243D01*
X9840Y15320D02*
Y15600D01*
Y15320D02*
X10803Y14357D01*
X21975Y5166D02*
X22742D01*
X25613Y8405D02*
X26416Y7602D01*
Y4596D02*
Y7602D01*
X38955Y15797D02*
Y16482D01*
Y15797D02*
X39015Y15737D01*
X38938Y15378D02*
X39015Y15454D01*
X38938Y15378D02*
Y15378D01*
X38938Y15095D02*
X38938Y15095D01*
X38938Y15095D01*
X38938Y15095D02*
X38938Y15095D01*
X39221D02*
X39657Y15531D01*
Y15531D02*
Y15531D01*
X39939D02*
X39939Y15531D01*
X39504Y14813D02*
X39939Y15248D01*
X39504Y14813D02*
Y14813D01*
X39504Y14530D02*
X39504Y14530D01*
X39504Y14530D01*
X39504Y14530D02*
X39504Y14530D01*
X39786D02*
X40222Y14966D01*
Y14966D02*
Y14966D01*
X40505D02*
X40505Y14966D01*
X40069Y14247D02*
X40505Y14683D01*
X40069Y14247D02*
Y14247D01*
X40069Y13964D02*
X40069Y13964D01*
X40069Y13964D01*
X40069Y13964D02*
X40069Y13964D01*
X40352D02*
X40428Y14041D01*
X40711Y14041D02*
X40711Y14041D01*
X40711Y14041D01*
Y14041D02*
X40762Y13989D01*
X40827Y13925D01*
X38955Y16482D02*
Y18274D01*
X40827Y13925D02*
X44279D01*
X45544Y12660D01*
X46000D01*
X39167Y10120D02*
X41099D01*
X41299Y10320D02*
Y10320D01*
X41499Y10520D02*
X41499D01*
X41699Y9855D02*
Y10320D01*
X41898Y9656D02*
X41898D01*
X42098Y9855D02*
Y9920D01*
X42298Y10120D02*
X42371D01*
X38860D02*
X39167D01*
X42371D02*
X43460D01*
X37332Y11648D02*
X38860Y10120D01*
X42476Y12333D02*
X42874D01*
X42276Y12091D02*
Y12133D01*
X42076Y11891D02*
X42076D01*
X41876Y12091D02*
Y12641D01*
X41676Y12841D02*
X41676D01*
X41476Y12025D02*
Y12641D01*
X41276Y11825D02*
X41276D01*
X41076Y12025D02*
Y12641D01*
X40876Y12841D02*
X40876D01*
X40676Y12025D02*
Y12641D01*
X40477Y11825D02*
X40477D01*
X40277Y12025D02*
Y12641D01*
X40077Y12841D02*
X40077D01*
X39877Y12025D02*
Y12641D01*
X39677Y11825D02*
X39677D01*
X39477Y12025D02*
Y12641D01*
X39277Y12841D02*
X39277D01*
X39077Y12533D02*
Y12641D01*
X38804Y12333D02*
X38877D01*
X42874D02*
X43133D01*
X38293D02*
X38804D01*
X43133D02*
X43460Y12660D01*
X37202Y11833D02*
X37332Y11703D01*
Y11648D02*
Y11703D01*
X37202Y11833D02*
Y11955D01*
D36*
X8862Y7406D02*
X9652D01*
D37*
Y6669D02*
Y7406D01*
X8915Y6669D02*
X9652D01*
D38*
X15486Y13336D02*
X20479D01*
X13596Y15226D02*
X15486Y13336D01*
X19538Y13923D02*
X19555Y13940D01*
X19526Y13911D02*
X19538Y13923D01*
X19555Y13940D02*
X21497D01*
X17059Y13911D02*
X19526D01*
X20479Y13336D02*
X20481Y13339D01*
X22840D01*
X21497Y13940D02*
X21503Y13946D01*
X22794D02*
X24586Y12154D01*
X21503Y13946D02*
X22794D01*
X22840Y13339D02*
X24189Y11990D01*
Y5054D02*
Y11990D01*
X24586Y6987D02*
Y12154D01*
X24648Y4595D02*
X25709D01*
X24189Y5054D02*
X24648Y4595D01*
X24586Y6987D02*
X25711Y5862D01*
X12380Y18140D02*
X13738Y16782D01*
X15680D01*
X16276Y16185D01*
Y14693D02*
Y16185D01*
Y14693D02*
X17059Y13911D01*
X13596Y15226D02*
Y16289D01*
X13052Y16833D02*
X13596Y16289D01*
X11675Y16833D02*
X13052D01*
X10367Y18140D02*
X11675Y16833D01*
X9840Y18140D02*
X10367D01*
D42*
X43460Y15200D02*
X46000D01*
D43*
X13139Y1008D02*
X27522D01*
X4944Y6427D02*
X5923Y7406D01*
X4944Y3435D02*
Y6427D01*
X3742Y2234D02*
X4944Y3435D01*
X20000Y15600D02*
X22540D01*
X22729D01*
X12012Y1008D02*
X13139D01*
X21961Y2110D02*
X27002D01*
X14853D02*
X21961D01*
X14265Y2699D02*
Y5730D01*
Y2699D02*
X14853Y2110D01*
X5923Y7406D02*
X8862D01*
X913Y2234D02*
X3742D01*
X23214Y15250D02*
X24396Y14069D01*
X25221D01*
X23079Y15250D02*
X23214D01*
X22729Y15600D02*
X23079Y15250D01*
X27422Y11868D02*
X27594Y11696D01*
X25221Y14069D02*
X27422Y11868D01*
X27594Y2702D02*
Y11696D01*
X27002Y2110D02*
X27594Y2702D01*
X28758Y2245D02*
Y12150D01*
X27522Y1008D02*
X28758Y2245D01*
X27620Y13288D02*
X28758Y12150D01*
X27620Y13288D02*
Y15600D01*
X25080D02*
X27620D01*
D44*
X6602Y11890D02*
D03*
Y6110D02*
D03*
D45*
X7102Y13320D02*
D03*
Y4680D02*
D03*
D46*
X2922Y13320D02*
D03*
Y4680D02*
D03*
D47*
X22540Y18140D02*
D03*
X25080D02*
D03*
X20000D02*
D03*
X27620D02*
D03*
X14920D02*
D03*
X17460D02*
D03*
X12380D02*
D03*
Y15600D02*
D03*
X9840D02*
D03*
X27620D02*
D03*
X25080D02*
D03*
X17460D02*
D03*
X14920D02*
D03*
X22540D02*
D03*
X20000D02*
D03*
X9840Y18140D02*
D03*
X7300D02*
D03*
D48*
Y15600D02*
D03*
D49*
X46000Y7580D02*
D03*
Y10120D02*
D03*
Y5040D02*
D03*
Y15200D02*
D03*
X43460D02*
D03*
X46000Y12660D02*
D03*
X43460Y2500D02*
D03*
Y10120D02*
D03*
Y12660D02*
D03*
Y5040D02*
D03*
Y7580D02*
D03*
D50*
X46000Y2500D02*
D03*
D51*
X33167Y18267D02*
D03*
X33650Y17100D02*
D03*
X32000Y18750D02*
D03*
X33167Y15933D02*
D03*
X32000Y15450D02*
D03*
X30833Y15933D02*
D03*
Y18267D02*
D03*
X30350Y17100D02*
D03*
X4067Y18267D02*
D03*
X4550Y17100D02*
D03*
X2900Y18750D02*
D03*
X4067Y15933D02*
D03*
X2900Y15450D02*
D03*
X1733Y15933D02*
D03*
Y18267D02*
D03*
X1250Y17100D02*
D03*
D52*
X32000D02*
D03*
X2900D02*
D03*
D53*
X21770Y10513D02*
D03*
X20500Y9243D02*
D03*
Y10513D02*
D03*
X21770Y9243D02*
D03*
X20500Y7973D02*
D03*
X21770D02*
D03*
X19230Y9243D02*
D03*
Y10513D02*
D03*
Y7973D02*
D03*
X17415Y12745D02*
D03*
X6483Y9830D02*
D03*
X6500Y8746D02*
D03*
X19538Y13923D02*
D03*
X20479Y13336D02*
D03*
X21245Y14555D02*
D03*
X22560Y11401D02*
D03*
X20295Y5402D02*
D03*
X24859Y5379D02*
D03*
X21420Y5784D02*
D03*
X28864Y14138D02*
D03*
X25711Y5862D02*
D03*
X25657Y7205D02*
D03*
X16234Y10572D02*
D03*
X17900Y1168D02*
D03*
X38227Y2032D02*
D03*
X36392Y11923D02*
D03*
X5362Y8740D02*
D03*
X5754Y9828D02*
D03*
X15422Y10613D02*
D03*
X25635Y9812D02*
D03*
X25635Y9218D02*
D03*
X25824Y11838D02*
D03*
X13091Y2082D02*
D03*
X12366Y2047D02*
D03*
X21975Y5166D02*
D03*
X9746Y13284D02*
D03*
X10204Y12219D02*
D03*
X16479Y5795D02*
D03*
X15569Y5773D02*
D03*
X25613Y8405D02*
D03*
X25709Y4595D02*
D03*
X21961Y2110D02*
D03*
X21987Y3666D02*
D03*
X27422Y11868D02*
D03*
X12133Y7147D02*
D03*
X10825Y4248D02*
D03*
X9436Y3984D02*
D03*
X11649Y2342D02*
D03*
X10115Y2369D02*
D03*
X16874Y3093D02*
D03*
X16181Y3086D02*
D03*
X15505Y3042D02*
D03*
X20028Y3701D02*
D03*
X19288Y4452D02*
D03*
X6570Y1777D02*
D03*
X9652Y11355D02*
D03*
Y10644D02*
D03*
X8915Y11355D02*
D03*
Y12319D02*
D03*
Y6669D02*
D03*
X9652D02*
D03*
Y7406D02*
D03*
X8915Y5705D02*
D03*
X9652D02*
D03*
X9587Y12322D02*
D03*
X38953Y19092D02*
D03*
X38955Y18274D02*
D03*
X38293Y12333D02*
D03*
X37202Y11955D02*
D03*
X42145Y18265D02*
D03*
X38406Y9675D02*
D03*
X35272Y18243D02*
D03*
D54*
X913Y2234D02*
D03*
X14265Y5730D02*
D03*
X13139Y1008D02*
D03*
X12012D02*
D03*
%TF.MD5,780f8bba0c2fe1ce0a2b90def42d8399*%
M02*
