M48
;Layer_Color=9474304
;FILE_FORMAT=4:3
METRIC,LZ
;TYPE=PLATED
T01F00S00C0.300
T02F00S00C0.500
T04F00S00C1.000
T05F00S00C2.200
;TYPE=NON_PLATED
T06F00S00C0.650
%
T01
X000657Y0001777
X0010115Y0002369
X0011649Y0002342
X0012366Y0002047
X0013091Y0002082
X0010825Y0004248
X0009436Y0003984
X0009652Y0005705
X0008915
Y0006669
X0009652
Y0007406
X0012133Y0007147
X0009652Y0010644
Y0011355
X0008915
Y0012319
X0009587Y0012322
X0010204Y0012219
X0009746Y0013284
X0006483Y000983
X0005754Y0009828
X0005362Y000874
X00065Y0008746
X0015422Y0010613
X0016234Y0010572
X001923Y0010513
X00205
Y0009243
X001923
Y0007973
X00205
X002177
Y0009243
Y0010513
X002256Y0011401
X0025824Y0011838
X0027422Y0011868
X0025635Y0009812
X0025635Y0009218
X0025613Y0008405
X0025657Y0007205
X0025711Y0005862
X0025709Y0004595
X0024859Y0005379
X0021975Y0005166
X002142Y0005784
X0020295Y0005402
X0019288Y0004452
X0020028Y0003701
X0021987Y0003666
X0021961Y000211
X00179Y0001168
X0016874Y0003093
X0016181Y0003086
X0015505Y0003042
X0015569Y0005773
X0016479Y0005795
X0017415Y0012745
X0020479Y0013336
X0036392Y0011923
X0037202Y0011955
X0038293Y0012333
X0038406Y0009675
X0038227Y0002032
X0038955Y0018274
X0038953Y0019092
X0042145Y0018265
X0035272Y0018243
X0033167Y0018267
X003365Y00171
X0033167Y0015933
X0032Y001545
X0030833Y0015933
X003035Y00171
X0030833Y0018267
X0032Y001875
X0028864Y0014138
X0021245Y0014555
X0019538Y0013923
X0004067Y0015933
X000455Y00171
X0004067Y0018267
X00029Y001875
X0001733Y0018267
X000125Y00171
X0001733Y0015933
X00029Y001545
T02
X0000913Y0002234
X0012012Y0001008
X0013139
X0014265Y000573
T04
X004346Y00025
X0046
Y000504
Y000758
Y001012
Y001266
X004346
Y001012
Y000758
Y000504
Y00152
X0046
X002762Y00156
Y001814
X002508
X002254
X002
X001746
X001492
Y00156
X001746
X002
X002254
X002508
X001238
Y001814
X000984
Y00156
X00073
Y001814
T05
X0032Y00171
X00029
T06
X0006602Y000611
Y001189
M30
