%TF.GenerationSoftware,Altium Limited,Altium Designer,24.10.1 (45)*%
G04 Layer_Color=16711935*
%FSLAX43Y43*%
%MOMM*%
%TF.SameCoordinates,738E9D88-7849-49E8-B729-5C703525A812*%
%TF.FilePolarity,Negative*%
%TF.FileFunction,Soldermask,Bot*%
%TF.Part,Single*%
G01*
G75*
%TA.AperFunction,ComponentPad*%
%ADD46C,0.650*%
%ADD64C,0.876*%
%ADD65O,2.176X1.076*%
%ADD66O,1.876X1.076*%
G04:AMPARAMS|DCode=67|XSize=1.776mm|YSize=1.776mm|CornerRadius=0.888mm|HoleSize=0mm|Usage=FLASHONLY|Rotation=180.000|XOffset=0mm|YOffset=0mm|HoleType=Round|Shape=RoundedRectangle|*
%AMROUNDEDRECTD67*
21,1,1.776,0.000,0,0,180.0*
21,1,0.000,1.776,0,0,180.0*
1,1,1.776,0.000,0.000*
1,1,1.776,0.000,0.000*
1,1,1.776,0.000,0.000*
1,1,1.776,0.000,0.000*
%
%ADD67ROUNDEDRECTD67*%
%ADD68R,1.776X1.776*%
G04:AMPARAMS|DCode=69|XSize=1.776mm|YSize=1.776mm|CornerRadius=0.888mm|HoleSize=0mm|Usage=FLASHONLY|Rotation=90.000|XOffset=0mm|YOffset=0mm|HoleType=Round|Shape=RoundedRectangle|*
%AMROUNDEDRECTD69*
21,1,1.776,0.000,0,0,90.0*
21,1,0.000,1.776,0,0,90.0*
1,1,1.776,0.000,0.000*
1,1,1.776,0.000,0.000*
1,1,1.776,0.000,0.000*
1,1,1.776,0.000,0.000*
%
%ADD69ROUNDEDRECTD69*%
%ADD70R,1.776X1.776*%
D46*
X6602Y11890D02*
D03*
Y6110D02*
D03*
D64*
X33167Y18267D02*
D03*
X33650Y17100D02*
D03*
X32000Y18750D02*
D03*
X33167Y15933D02*
D03*
X32000Y15450D02*
D03*
X30833Y15933D02*
D03*
Y18267D02*
D03*
X30350Y17100D02*
D03*
X1250D02*
D03*
X4550D02*
D03*
X4067Y15933D02*
D03*
Y18267D02*
D03*
X2900Y15450D02*
D03*
Y18750D02*
D03*
X1733Y15933D02*
D03*
Y18267D02*
D03*
D65*
X7102Y13320D02*
D03*
Y4680D02*
D03*
D66*
X2922Y13320D02*
D03*
Y4680D02*
D03*
D67*
X46000Y7580D02*
D03*
Y10120D02*
D03*
Y5040D02*
D03*
Y15200D02*
D03*
X43460D02*
D03*
X46000Y12660D02*
D03*
X43460Y2500D02*
D03*
Y10120D02*
D03*
Y12660D02*
D03*
Y5040D02*
D03*
Y7580D02*
D03*
D68*
X46000Y2500D02*
D03*
D69*
X22540Y18140D02*
D03*
X25080D02*
D03*
X20000D02*
D03*
X27620D02*
D03*
X14920D02*
D03*
X17460D02*
D03*
X12380D02*
D03*
Y15600D02*
D03*
X9840D02*
D03*
X27620D02*
D03*
X25080D02*
D03*
X17460D02*
D03*
X14920D02*
D03*
X22540D02*
D03*
X20000D02*
D03*
X9840Y18140D02*
D03*
X7300D02*
D03*
D70*
Y15600D02*
D03*
%TF.MD5,4b8d779dc65e2dfece169d37eeee28fb*%
M02*
