%TF.GenerationSoftware,Altium Limited,Altium Designer,24.10.1 (45)*%
G04 Layer_Color=0*
%FSLAX43Y43*%
%MOMM*%
%TF.SameCoordinates,738E9D88-7849-49E8-B729-5C703525A812*%
%TF.FilePolarity,Positive*%
%TF.FileFunction,Plated,1,2,PTH,Drill*%
%TF.Part,Single*%
G01*
G75*
%TA.AperFunction,ComponentDrill*%
%ADD93C,0.300*%
%ADD94C,2.200*%
%ADD95O,1.700X0.600*%
%ADD96O,1.400X0.600*%
%ADD97C,1.000*%
%ADD98C,1.000*%
%TA.AperFunction,ViaDrill,NotFilled*%
%ADD99C,0.300*%
%ADD100C,0.500*%
D93*
X33167Y18267D02*
D03*
X33650Y17100D02*
D03*
X32000Y18750D02*
D03*
X33167Y15933D02*
D03*
X32000Y15450D02*
D03*
X30833Y15933D02*
D03*
Y18267D02*
D03*
X30350Y17100D02*
D03*
X1250D02*
D03*
X4550D02*
D03*
X4067Y15933D02*
D03*
Y18267D02*
D03*
X2900Y15450D02*
D03*
Y18750D02*
D03*
X1733Y15933D02*
D03*
Y18267D02*
D03*
D94*
X32000Y17100D02*
D03*
X2900D02*
D03*
D95*
X7102Y13320D02*
D03*
Y4680D02*
D03*
D96*
X2922Y13320D02*
D03*
Y4680D02*
D03*
D97*
X46000Y7580D02*
D03*
Y10120D02*
D03*
Y5040D02*
D03*
Y15200D02*
D03*
X43460D02*
D03*
X46000Y12660D02*
D03*
Y2500D02*
D03*
X43460D02*
D03*
Y10120D02*
D03*
Y12660D02*
D03*
Y5040D02*
D03*
Y7580D02*
D03*
D98*
X22540Y18140D02*
D03*
X25080D02*
D03*
X20000D02*
D03*
X27620D02*
D03*
X14920D02*
D03*
X17460D02*
D03*
X12380D02*
D03*
Y15600D02*
D03*
X9840D02*
D03*
X27620D02*
D03*
X25080D02*
D03*
X17460D02*
D03*
X14920D02*
D03*
X22540D02*
D03*
X20000D02*
D03*
X9840Y18140D02*
D03*
X7300Y15600D02*
D03*
Y18140D02*
D03*
D99*
X21770Y10513D02*
D03*
X20500Y9243D02*
D03*
Y10513D02*
D03*
X21770Y9243D02*
D03*
X20500Y7973D02*
D03*
X21770D02*
D03*
X19230Y9243D02*
D03*
Y10513D02*
D03*
Y7973D02*
D03*
X17415Y12745D02*
D03*
X6483Y9830D02*
D03*
X6500Y8746D02*
D03*
X19538Y13923D02*
D03*
X20479Y13336D02*
D03*
X21245Y14555D02*
D03*
X22560Y11401D02*
D03*
X20295Y5402D02*
D03*
X24859Y5379D02*
D03*
X21420Y5784D02*
D03*
X28864Y14138D02*
D03*
X25711Y5862D02*
D03*
X25657Y7205D02*
D03*
X16234Y10572D02*
D03*
X17900Y1168D02*
D03*
X38227Y2032D02*
D03*
X36392Y11923D02*
D03*
X5362Y8740D02*
D03*
X5754Y9828D02*
D03*
X15422Y10613D02*
D03*
X25635Y9812D02*
D03*
X25635Y9218D02*
D03*
X25824Y11838D02*
D03*
X13091Y2082D02*
D03*
X12366Y2047D02*
D03*
X21975Y5166D02*
D03*
X9746Y13284D02*
D03*
X10204Y12219D02*
D03*
X16479Y5795D02*
D03*
X15569Y5773D02*
D03*
X25613Y8405D02*
D03*
X25709Y4595D02*
D03*
X21961Y2110D02*
D03*
X21987Y3666D02*
D03*
X27422Y11868D02*
D03*
X12133Y7147D02*
D03*
X10825Y4248D02*
D03*
X9436Y3984D02*
D03*
X11649Y2342D02*
D03*
X10115Y2369D02*
D03*
X16874Y3093D02*
D03*
X16181Y3086D02*
D03*
X15505Y3042D02*
D03*
X20028Y3701D02*
D03*
X19288Y4452D02*
D03*
X6570Y1777D02*
D03*
X9652Y11355D02*
D03*
Y10644D02*
D03*
X8915Y11355D02*
D03*
Y12319D02*
D03*
Y6669D02*
D03*
X9652D02*
D03*
Y7406D02*
D03*
X8915Y5705D02*
D03*
X9652D02*
D03*
X9587Y12322D02*
D03*
X38953Y19092D02*
D03*
X38955Y18274D02*
D03*
X38293Y12333D02*
D03*
X37202Y11955D02*
D03*
X42145Y18265D02*
D03*
X38406Y9675D02*
D03*
X35272Y18243D02*
D03*
D100*
X913Y2234D02*
D03*
X14265Y5730D02*
D03*
X13139Y1008D02*
D03*
X12012D02*
D03*
%TF.MD5,642948f0a5b52f6645722f6e327b7d4c*%
M02*
